<?xml version="1.0" encoding="UTF-8" standalone="no"?>
<svg
   width="500mm"
   height="297mm"
   viewBox="0 0 500 297"
   version="1.1"
   id="MickeyMouse"
   sodipodi:docname="MickeyMouseCssWalkcycle.svg"
   inkscape:version="1.4.1 (1:1.4.1+202503302257+93de688d07)"
   xml:space="preserve"
   xmlns:inkscape="http://www.inkscape.org/namespaces/inkscape"
   xmlns:sodipodi="http://sodipodi.sourceforge.net/DTD/sodipodi-0.dtd"
   xmlns="http://www.w3.org/2000/svg"
   xmlns:svg="http://www.w3.org/2000/svg">

    <defs>
      <clipPath id="clip">
         <rect x="0" y="0" width="400" height="400" />
      </clipPath>      
   </defs>

  <sodipodi:namedview
   id="namedview1"
   pagecolor="#ffffff"
   bordercolor="#111111"
   borderopacity="1"
   inkscape:showpageshadow="0"
   inkscape:pageopacity="0"
   inkscape:pagecheckerboard="1"
   inkscape:deskcolor="#d1d1d1"
   inkscape:document-units="mm"
   inkscape:zoom="5.6568545"
   inkscape:cx="328.00914"
   inkscape:cy="371.05427"
   inkscape:window-width="2560"
   inkscape:window-height="1356"
   inkscape:window-x="0"
   inkscape:window-y="0"
   inkscape:window-maximized="1"
   inkscape:current-layer="leftTibia" />

   <style type="text/css" id="style1">
      #body {
        /*animation: translateBody 10s infinite linear;*/
        transform-origin: center;
        transform-box: fill-box;
      }
        @keyframes translateBody {
          0%  { transform: translate(0px, 0px) scaleX(1); }
          47%  { transform: translate(300px, 0px) scaleX(1); }
          50%  { transform: translate(300px, 0px) scaleX(-1); }
          97%  { transform: translate(0px, 0px) scaleX(-1); }
          100%   { transform: translate(0px, 0px) scaleX(1); }
        }
      
      #head {
        animation: rotateHead 1.5s infinite linear;
        transform-origin: center;
        transform-box: fill-box;
      }
        @keyframes rotateHead {
          0%  { transform: rotate(-10deg); }
          50%  { transform: rotate(-5deg); }
          100%   { transform: rotate(-10deg); }
        }
          
      #leftEye, #rightEye {
        animation: closeEyes 2s infinite linear;
        transform-origin: bottom;
        transform-box: fill-box;
      }
        @keyframes closeEyes {
          0%  { transform: scaleY(1); }
          48%  { transform: scaleY(1); }
          50%  { transform: scaleY(0); }
          52%  { transform: scaleY(1); }
          100%   { transform: scaleY(1); }
        }
      
      #leftArm {
         transform-origin: 91.893817px 75.40945px;
         animation: rotateLeftArm 0.8s infinite linear;
      }
         @keyframes rotateLeftArm {
            0%  { transform: rotate(-15deg); }
            25%  { transform: rotate(-60deg); }
            50%  { transform: rotate(5deg); }
            75%  { transform: rotate(10deg); }            
            100%   { transform: rotate(-15deg); }
         }
      
      #rightArm {
         transform-origin: 91.806245px 75.803426px;
         animation: rotateRightArm 0.8s infinite linear;
      }
         @keyframes rotateRightArm {
            0%  { transform: rotate(5deg); }
            25%  { transform: rotate(20deg); }
            50%  { transform: rotate(-15deg); }
            75%  { transform: rotate(-30deg); }            
            100%   { transform: rotate(5deg); }
         }
      
      #leftLeg {
         transform-origin: 95.258px 89.523px;
         animation: rotateLeftLeg 0.8s infinite linear;
      }       
         @keyframes rotateLeftLeg {
            0%  { transform: rotate(5deg); }
            25%  { transform: rotate(40deg); }
            50%  { transform: rotate(-15deg); }
            75%  { transform: rotate(-40deg); }            
            100%   { transform: rotate(5deg); }
         }
      
         #leftTibia {
            transform-origin: 95.542259px 97.359428px;
            animation: leftTibia 0.8s infinite linear;
         }       
            @keyframes leftTibia {
               0%  { transform: rotate(5deg); }
               25%  { transform: rotate(10deg); }
               50%  { transform: rotate(80deg); }
               75%  { transform: rotate(5deg); }
               100%   { transform: rotate(5deg); }
            }
          #leftFootTip {
               transform-origin: 96.024px 107.989px;
               animation: leftFootTip 0.8s infinite linear;
          }       
              @keyframes leftFootTip {
                  0%  { transform: rotate(-15deg); }
                  25%  { transform: rotate(-5deg); }
                  50%  { transform: rotate(0deg); }
                  75%  { transform: rotate(0deg); }
                  100%  { transform: rotate(-15deg); }
              }
      
      #rightLeg {
         transform-origin: 95.258px 89.523px;
         animation: rotateRightLeg 0.8s infinite linear;
      }
         @keyframes rotateRightLeg {
            0%  { transform: rotate(-15deg); }
            25%  { transform: rotate(-40deg); }
            50%  { transform: rotate(5deg); }
            75%  { transform: rotate(40deg); }            
            100%   { transform: rotate(-15deg); }
         }
      
         #rightTibia {
            transform-origin: 95.542259px 97.359428px;
            animation: rightTibia 0.8s infinite linear;
         }       
            @keyframes rightTibia {
               0%  { transform: rotate(80deg); }
               25%  { transform: rotate(5deg); }
               50%  { transform: rotate(5deg); }
               75%  { transform: rotate(10deg); }
               100%   { transform: rotate(80deg); }
            }
            #rightFootTip {
               transform-origin: 96.024px 107.989px;
               animation: rightFootTip 0.8s infinite linear;
            }       
            @keyframes rightFootTip {
                  0%  { transform: rotate(00deg); }
                  25%  { transform: rotate(0deg); }
                  50%  { transform: rotate(-15deg); }
                  75%  { transform: rotate(-5deg); }
                  100%   { transform: rotate(00deg); }
              }
      </style>
   <g id="layer1">
      <g clip-path="url(#clip)">
         <g>
            <!-- Move the entire group of images -->
            <animateTransform
            attributeName="transform"
            type="translate"
            from="0,0"
            to="-400,0"
            dur="12s"
            repeatCount="indefinite" />
            
            <!-- Repeated images tiled across the visible width + extra -->
            <image href="rural-nature-road-scene-free-vector.jpg" x="0" y="2"   width="400" />
            <image href="rural-nature-road-scene-free-vector.jpg" x="399" y="2" width="400" />
         </g>
      </g>

      <g
         id="body">
         <g
         id="leftLeg"
         transform="translate(0.00826823,-0.01653646)">
            <g
         id="leftTibia">
            <path
         style="baseline-shift:baseline;display:inline;overflow:visible;opacity:1;vector-effect:none;fill:#000000;paint-order:fill markers stroke;enable-background:accumulate;stop-color:#000000;stop-opacity:1;fill-opacity:1"
         d="m 94.5625,97.3125 -0.57204,7.29857 3.058334,-0.0641 -0.486294,-7.230474 z"
         id="A2"
         sodipodi:nodetypes="ccccc" /><g
         id="leftFoot"><g
         id="leftFootTip"><path
            style="fill:#000000;fill-opacity:1;stroke:none;stroke-width:0.000264583;stroke-linejoin:round;stroke-dasharray:none;paint-order:fill markers stroke"
            d="m 96.191228,107.17103 -0.3016,-0.0347 -1.20015,0.33075 c 0.23776,0.17054 0.67658,0.50943 1.09382,0.62123 0.76388,0.20468 1.53525,0.25792 2.80462,0.30344 z"
            id="path49-6"
            sodipodi:nodetypes="cccscc" /><path
            id="path4-2"
            style="stroke-width:0.050863"
            d="m 97.844958,101.57333 c -0.0985,2.46866 -0.91907,4.70495 -2.02727,6.43888 1.05636,0.22085 2.10161,0.40136 3.20188,0.37569 1.461802,-0.0339 2.830922,-0.40261 4.107242,-1.10587 0.16819,-0.0929 0.27638,-0.17229 0.32453,-0.23875 0.08,-0.11054 0.12309,-0.23865 0.12919,-0.38344 0.0115,-0.27771 0.0258,-0.47364 0.0424,-0.58859 0.004,-0.03 0.0162,-0.0585 0.0346,-0.0822 0.32281,-0.41878 0.51766,-0.92752 0.58446,-1.52601 0.1024,-0.91892 -0.16023,-1.68285 -0.78755,-2.29185 -0.30721,-0.29806 -0.66828,-0.53616 -1.08366,-0.7152 -1.41603,-0.61036 -2.979522,-0.42709 -4.392492,0.0744 -0.009,0.003 -0.12575,0.0468 -0.13333,0.0429 z"
            sodipodi:nodetypes="cccccccccccccc" /><path
            id="path5-9"
            style="fill:#ffc122;fill-opacity:1;stroke-width:0.050863"
            d="m 103.08237,106.18545 a 0.02543151,0.02543151 0 0 0 -0.016,0.006 c -0.3947,0.34316 -0.8319,0.60704 -1.31103,0.79117 -0.71344,0.27432 -1.40744,0.45744 -2.082562,0.55035 -1.17663,0.16208 -2.34538,0.20513 -3.50573,0.12816 h -5.2e-4 a 0.00356041,0.00356041 0 0 1 -5.1e-4,0 0.00356041,0.00356041 0 0 1 -5.2e-4,5.1e-4 0.00356041,0.00356041 0 0 1 -5.2e-4,0 0.00356041,0.00356041 0 0 1 -5.1e-4,5.2e-4 0.00356041,0.00356041 0 0 1 0,5.2e-4 0.00356041,0.00356041 0 0 1 -5.2e-4,0 0.00356041,0.00356041 0 0 1 0,5.2e-4 0.00356041,0.00356041 0 0 1 0,5.1e-4 0.00356041,0.00356041 0 0 1 0,5.2e-4 0.00356041,0.00356041 0 0 1 0,5.2e-4 0.00356041,0.00356041 0 0 1 0,5.1e-4 0.00356041,0.00356041 0 0 1 0,5.2e-4 0.00356041,0.00356041 0 0 1 5.2e-4,5.2e-4 0.00356041,0.00356041 0 0 1 0,5.1e-4 0.00356041,0.00356041 0 0 1 5.1e-4,0 0.00356041,0.00356041 0 0 1 5.2e-4,5.2e-4 c 0.0946,0.0271 0.19656,0.0495 0.30541,0.0672 1.91346,0.31026 3.878112,0.28134 5.675102,-0.51263 0.32282,-0.14242 0.60841,-0.27873 0.85628,-0.40928 a 0.19378811,0.19480537 81.1 0 0 0.10077,-0.13746 c 0.0291,-0.16208 0.0305,-0.31815 0.005,-0.4687 a 0.02543151,0.02543151 0 0 0 -0.0253,-0.0212 z" /><path
            id="path47-1"
            style="fill:#ffc122;fill-opacity:1;stroke-width:0.050863"
            d="m 97.918338,102.06116 c -0.16679,1.86478 -0.80351,3.64669 -1.59421,5.11493 1.27536,0.12641 2.58716,0.0187 3.839552,-0.21032 0.6185,-0.11343 1.2288,-0.29763 1.80661,-0.61857 0.24177,-0.13462 0.47222,-0.2736 0.69195,-0.41703 0.54593,-0.3574 0.88154,-0.83964 1.00666,-1.44694 0.0824,-0.39928 0.10268,-0.74078 -0.0362,-1.11208 -0.46743,-1.25174 -1.98873,-1.75711 -3.19877,-1.76682 -0.845102,-0.007 -1.683432,0.14538 -2.515612,0.45683 z"
            sodipodi:nodetypes="cccccccccc" /></g><g
         id="leftHeel"
         inkscape:transform-center-x="2.3152222"
         inkscape:transform-center-y="-3.390982"><path
            id="path45-7"
            style="fill:#000000;fill-opacity:1;stroke-width:0.050863"
            d="m 94.296608,100.08632 c -0.90901,0.0666 -1.9722,0.22586 -2.35526,1.19822 -0.006,0.0157 -0.0192,0.0275 -0.0354,0.0323 -0.822847,0.22433 -1.432041,0.67548 -1.827382,1.35408 -0.545015,0.9359 -0.591556,1.97369 0.127712,2.81444 0.0179,0.0208 0.02806,0.0473 0.02883,0.0747 0.0055,0.15807 0.0032,0.32354 -0.0068,0.49606 -0.01,0.17828 0.03355,0.33436 0.130415,0.46878 0.446982,0.61822 1.117964,1.10646 1.805485,1.42964 0.54363,0.25535 1.18704,0.39409 1.78152,0.47081 0.17919,0.0232 0.31606,-0.042 0.41094,-0.1955 0.0818,-0.13257 0.14884,-0.27241 0.20094,-0.41948 0.007,-0.0218 0.0311,-0.0337 0.0529,-0.0269 0.38787,0.12028 0.77883,0.2232 1.17308,0.30909 1.20243,-1.51082 1.91836,-5.33746 2.10161,-5.95555 0.18972,-0.63989 0.12077,-1.00753 -0.82591,-1.56477 -0.19677,-0.11583 -0.3351,-0.18465 -0.48668,-0.26042 -0.0443,0.0786 -0.10222,0.2094 -0.17033,0.34377 -0.20041,0.39532 -0.29509,0.79084 -0.69943,0.94654 -0.38641,0.15421 -1.23329,0.18032 -1.44396,-0.0535 l 0.65747,-1.42543 c -0.22139,-0.0312 -0.40058,-0.0374 -0.61982,-0.0367 z"
            sodipodi:nodetypes="ccccccccccccccscccccccc" /><path
            id="path48-0"
            style="fill:#ffc122;fill-opacity:1;stroke-width:0.050863"
            d="m 90.721832,105.8142 a 0.01780206,0.01780206 0 0 0 -0.01512,0.0149 c -0.02001,0.11106 -0.01803,0.20824 0.0063,0.29152 a 0.22379729,0.22176277 17.082574 0 0 0.04122,0.0763 c 0.264548,0.3159 0.445214,0.52189 0.542068,0.61799 0.682478,0.67869 1.731778,0.96618 2.662638,1.08338 a 0.14801139,0.14801139 0 0 0 0.15424,-0.0896 c 0.073,-0.17199 0.10477,-0.3511 0.0954,-0.53768 a 0.03306096,0.03356959 5.1825743 0 0 -0.025,-0.0307 c -0.96032,-0.24156 -1.91489,-0.53519 -2.787573,-0.97591 -0.243452,-0.12311 -0.463401,-0.27194 -0.660311,-0.44586 a 0.01780206,0.01780206 0 0 0 -0.01391,-0.004 z" /><path
            id="path46-9"
            style="fill:#ffc122;fill-opacity:1;stroke-width:0.050863"
            d="m 94.390738,100.56669 c -0.75248,0.0216 -1.45451,0.038 -1.84636,0.78598 -0.35411,0.67555 0.21036,1.32963 0.84695,1.47944 0.0138,0.004 0.0167,0.0218 0.005,0.0295 -0.0144,0.009 -0.0334,0.0126 -0.0575,0.0114 -0.51152,-0.0211 -1.1945,-0.35624 -1.26083,-0.93463 -0.002,-0.0188 -0.02,-0.0314 -0.0386,-0.0267 -0.691177,0.17255 -1.20613,0.56771 -1.545348,1.18541 -0.379686,0.69212 -0.426884,1.49172 0.128607,2.09457 0.142141,0.15413 0.497916,0.36159 1.068111,0.62241 1.37061,0.62752 2.71076,1.07845 4.19561,1.30611 0.0734,0.0108 0.34992,0.0475 0.46866,0.0413 0.43044,-0.0225 0.91678,-0.17959 1.32847,-0.30974 0.0569,-0.17708 0.26574,-4.76837 0.2561,-4.76482 -0.0311,0.0115 -0.0546,0.0373 -0.0631,0.0692 -0.0308,0.11605 -0.0897,0.22197 -0.17632,0.31788 -0.35323,0.3897 -0.79047,0.55899 -1.31226,0.5078 -0.0188,-0.004 -0.0207,-0.0298 -0.003,-0.0362 0.32006,-0.075 0.59795,-0.21391 0.83398,-0.41674 0.24286,-0.20887 0.33902,-0.49118 0.28775,-0.84665 -0.0408,-0.28518 -0.62275,-0.68997 -0.85664,-0.82063 -0.0183,-0.0104 -0.0416,-0.004 -0.0513,0.0151 -0.0989,0.18872 -0.17951,0.33985 -0.24154,0.45429 -0.22837,0.42127 -0.55294,0.6124 -1.0377,0.67392 -0.42194,0.0531 -0.77649,0.0392 -1.06371,-0.0415 -0.18318,-0.0519 -0.44307,-0.16865 -0.31626,-0.42953 0.19255,-0.39614 0.34982,-0.70837 0.47145,-0.93658 0.007,-0.0142 -0.004,-0.0312 -0.02,-0.0306 z"
            sodipodi:nodetypes="cccccccccccsccccccccccccccccc" /></g></g>			
         
            </g>
            <path
         style="fill:none;stroke:#000000;stroke-width:2;stroke-dasharray:none;stroke-opacity:1;paint-order:fill markers stroke"
         d="m 95.478746,92.10793 0.07066,5.299746"
         id="leftFemur"
         sodipodi:nodetypes="cc" />
            <path
         style="font-variation-settings:normal;vector-effect:none;fill:#ba2c35;fill-opacity:1;stroke:#000000;stroke-width:0.370297;stroke-linecap:butt;stroke-linejoin:round;stroke-miterlimit:4;stroke-dasharray:none;stroke-dashoffset:0;stroke-opacity:1;-inkscape-stroke:none;paint-order:fill markers stroke;stop-color:#000000"
         d="m 93.208659,92.134317 -0.07016,4.326427 5.425573,-0.374179 -0.631426,-5.19171"
         id="path51" />
            <circle
         style="font-variation-settings:normal;vector-effect:none;fill:none;fill-opacity:1;stroke:#000000;stroke-width:0.270825;stroke-linecap:butt;stroke-linejoin:miter;stroke-miterlimit:4;stroke-dasharray:none;stroke-dashoffset:0;stroke-opacity:1;-inkscape-stroke:none;paint-order:fill markers stroke"
         id="leftKnee"
         cx="95.542259"
         cy="97.359428"
         r="0.27063236" />
         </g><g
         id="leftArm"
         transform="translate(0.00826823,-0.01653646)">
            <path
         style="fill:none;stroke:#000000;stroke-width:1.71453;stroke-linejoin:round;stroke-dasharray:none;paint-order:fill markers stroke"
         d="m 93.06472,75.911086 c -1.975849,1.742368 -4.572422,3.174374 -5.875013,5.253372 0.595223,2.558307 3.028733,3.686835 4.619978,5.470458"
         id="leftTopMember"
         sodipodi:nodetypes="ccc"
         inkscape:transform-center-x="2.663427"
         inkscape:transform-center-y="4.7669483" />
            <g
         id="leftHand"
         transform="matrix(0.24995927,0.49930703,0.49930703,-0.24995927,66.081652,-8.0424009)">
            <path
         id="path934-9"
         style="stroke:none;stroke-width:0.0621918"
         d="m 173.23581,-28.048967 c -1.34738,-0.415739 -2.52277,-1.331684 -3.19276,-2.608175 -0.31793,-0.60654 -0.34699,-1.218853 -0.2079,-1.878098 0.006,-0.02913 -0.01,-0.05648 -0.0343,-0.06726 l -0.15219,-0.306784 -0.01,-0.01392 c 0.003,-0.0055 0.003,-0.01209 -5.8e-4,-0.01806 -0.0851,-0.154871 -0.13464,-0.325431 -0.14852,-0.511792 0.0399,0.01892 0.0744,0.03093 0.10348,0.03622 -0.0291,-0.0053 -0.0636,-0.01743 -0.10346,-0.03634 l -0.0125,-0.05938 -0.002,-0.150429 -9e-5,-1.44e-4 3e-5,-1.18e-4 c -0.0281,-0.303167 0.0995,-0.563607 0.14456,-0.803977 0.003,-0.01272 0.006,-0.02532 0.011,-0.03757 0.35329,-0.889871 0.85676,-1.65203 1.51039,-2.28647 0.2005,-0.194357 0.44155,-0.367385 0.72325,-0.519013 l 0.60227,-0.183472 c 0.004,-0.0013 0.008,-0.0033 0.0116,-0.0058 l 0.34491,-0.08923 c 0.01,0.0038 0.021,0.0037 0.0311,-0.0016 0.72991,-0.370027 1.49897,-0.506374 2.307,-0.409244 0.38971,0.04717 0.77642,0.114725 1.1604,0.203034 0.80092,0.184834 1.44182,0.354277 1.92252,0.508277 0.1427,0.04569 0.32412,0.121333 0.54448,0.226866 0.73877,0.353444 1.42447,0.80583 2.0569,1.3571 0.28519,0.248226 0.48121,0.541354 0.58793,0.879287 0.13548,0.428811 0.066,1.026859 -0.27621,1.388734 -0.0291,0.03065 -0.0336,0.07741 -0.0111,0.113461 0.2586,0.412301 0.29394,0.832764 0.10594,1.261542 -0.15485,0.353626 -0.37581,0.641759 -0.66282,0.86431 -0.0163,0.01244 -0.0213,0.03447 -0.0121,0.05245 0.0325,0.06445 0.063,0.122984 0.0917,0.175308 0.26678,0.488816 0.29135,1.075316 -0.007,1.558505 -0.26889,0.436763 -0.64154,0.720231 -1.11828,0.8504 -0.0379,0.01053 -0.0703,0.03545 -0.0904,0.06954 -0.40615,0.700495 -1.3544,1.134771 -2.15177,1.089326 -0.48249,-0.02746 -1.07284,-0.387911 -1.49933,-0.74213 -0.0152,-0.01276 -0.0371,-0.01368 -0.0533,-0.0022 -0.5302,0.367123 -1.3117,0.363847 -1.92689,0.243949 -0.19853,-0.03857 -0.39451,-0.08774 -0.58699,-0.147134 z m 0.50229,-0.236094 c 0.17322,0.04468 0.34484,0.07905 0.51325,0.101248 0.14986,0.01951 0.35249,0.0046 0.6078,-0.04479 0.65887,-0.127405 1.16322,-0.625171 1.45442,-1.209646 0.0706,-0.14143 0.0892,-0.402782 0.0764,-0.576373 -0.0399,-0.54838 -0.0395,-1.127875 0.001,-1.738517 -0.34528,-0.486223 -0.81525,-0.579407 -1.40979,-0.279644 -0.39654,0.199974 -0.64655,0.528694 -0.84842,0.913877 -0.0627,0.119736 -0.0874,0.248748 -0.0742,0.387153 -0.0452,0.338543 0.0494,0.633392 0.20055,0.933259 0.004,0.0081 9.9e-4,0.01761 -0.007,0.02176 l -0.0139,0.0073 -1.2e-4,-2.9e-5 -1.2e-4,-3e-5 -1.2e-4,-2.9e-5 c -9e-5,-1e-5 -1.6e-4,3.6e-5 -2.7e-4,1.13e-4 -7e-5,-4e-6 -2.7e-4,-8.6e-5 -4.7e-4,-5.8e-5 -3e-5,-8e-6 -1.5e-4,4.2e-5 -2.7e-4,1.14e-4 l -6e-5,-1.28e-4 -1.2e-4,-2.8e-5 c -2.4e-4,-1.23e-4 -4.8e-4,-2.43e-4 -6.7e-4,-2.3e-4 -1.9e-4,-1.74e-4 -5.4e-4,-5.79e-4 -7.1e-4,-7.84e-4 l -0.233,-0.439002 c 0.002,-0.06438 -0.009,-0.125575 -0.0344,-0.18366 -0.006,-0.01314 -0.008,-0.02718 -0.009,-0.04132 l -0.009,-0.297951 c -8.7e-4,-0.01808 -0.0257,-0.02224 -0.0323,-0.0054 l -0.16839,0.403389 c -0.008,0.02198 -0.0411,0.01408 -0.0399,-0.0097 0.0628,-0.889908 0.64083,-1.74532 1.39573,-2.203249 0.0127,-0.0067 0.007,-0.02601 -0.007,-0.02453 -0.51756,0.01715 -1.02205,-0.07585 -1.5132,-0.278889 -0.108,-0.0408 -0.21801,-0.107147 -0.33001,-0.199135 0.72927,0.30004 1.45022,0.328194 2.16292,0.08457 0.0337,-0.01153 0.0575,-0.0418 0.0604,-0.0771 0.0491,-0.580933 0.28664,-1.090027 0.71284,-1.527256 0.0225,-0.02335 0.0352,-0.05474 0.0358,-0.0877 1.9e-4,-0.196869 0.0348,-0.410797 0.1036,-0.641931 0.16233,-0.546836 0.52464,-0.88984 1.10403,-0.889314 0.0189,-3.05e-4 0.0363,-0.01 0.0461,-0.02584 0.0794,-0.128966 0.13237,-0.264595 0.15873,-0.406824 l 0.0219,-0.18176 c 0.007,-0.04464 0.0705,-0.04669 0.0806,-0.0026 l 0.0386,0.196247 -0.0969,0.433422 c -0.005,0.02398 0.007,0.04828 0.0303,0.05724 0.29057,0.116352 0.55392,0.279355 0.79009,0.489039 0.0219,0.01956 0.0515,0.02804 0.0803,0.02324 l 0.58545,-0.09288 c 0.21441,0.01201 0.41155,0.07248 0.59165,0.181375 0.0185,0.01005 0.008,0.03823 -0.0127,0.03338 -0.39457,-0.08669 -0.648,-0.13597 -0.99002,0.130001 -0.0231,0.01799 -0.0329,0.04809 -0.0253,0.07655 l 0.0556,0.203408 -0.47119,-0.501392 c -0.002,-0.0017 -0.004,-0.0033 -0.006,-0.0047 -0.31764,-0.223092 -0.72126,-0.491212 -1.12199,-0.349561 -0.49542,0.175324 -0.81425,0.62492 -0.69932,1.15988 0.21064,0.911477 1.03144,1.504314 1.91598,1.638516 0.74321,0.112441 1.80759,0.102306 2.36001,-0.49585 0.0343,-0.03715 0.0661,-0.07531 0.0952,-0.114313 0.43752,-0.585121 0.29753,-1.358383 -0.30518,-1.796257 -0.72295,-0.525283 -1.30094,-0.912113 -1.73402,-1.160513 -0.19641,-0.112886 -0.45753,-0.2176 -0.7834,-0.314239 -0.74105,-0.219488 -1.48801,-0.393303 -2.24081,-0.521201 -0.43344,-0.107649 -0.78175,-0.157518 -1.04489,-0.149884 -1.08788,0.03024 -2.01375,0.429844 -2.77765,1.198958 -0.17754,0.178835 -0.33533,0.3996 -0.48957,0.578388 -0.005,0.0058 -0.0138,0.0064 -0.0198,0.0015 l -0.0145,-0.01197 -1.2e-4,-2.9e-5 9e-5,-2.7e-4 -1.2e-4,-3e-5 -1.1e-4,-3e-5 3e-5,-1.17e-4 -9e-5,-1.45e-4 3e-5,-1.16e-4 -1.2e-4,-3.1e-5 -8e-5,-1.43e-4 1.3e-4,-6.5e-5 -9e-5,-2.45e-4 3e-5,-1.17e-4 3e-5,-1.19e-4 3e-5,-1.17e-4 1.3e-4,-6.5e-5 c 0.21186,-0.349196 0.39587,-0.638936 0.55205,-0.869167 0.10636,-0.156311 0.25581,-0.294455 0.44811,-0.414339 0.0288,-0.01708 0.0107,-0.06128 -0.0218,-0.0536 -0.32809,0.07135 -0.62349,0.214477 -0.8863,0.429331 -0.33412,0.261297 -0.64916,0.602703 -0.94522,1.024149 -0.35699,0.507382 -0.60451,0.957327 -0.74254,1.349792 -0.0393,0.110999 -0.0668,0.202893 -0.0825,0.275834 -0.0282,0.131526 -0.0506,0.223537 -0.0673,0.275775 -0.0123,0.03803 -0.0152,0.07832 -0.009,0.117677 l 0.0242,0.152149 c -0.0261,0.03943 -0.0344,0.08219 -0.0251,0.128461 10e-4,0.02542 -0.001,0.04673 -0.008,0.06383 l -1.2e-4,6.4e-5 c 0.0765,0.209086 0.12715,0.419993 0.28795,0.580866 0.0119,0.01209 0.0324,0.0067 0.0366,-0.0097 0.13353,-0.456999 0.31175,-0.900662 0.53472,-1.330873 0.003,-0.0059 0.0103,-0.0084 0.0168,-0.0059 l 0.0146,0.0061 c 0.003,0.0013 0.005,0.0051 0.004,0.0083 -0.0754,0.189703 -0.18512,0.49893 -0.3292,0.927816 -0.0884,0.263923 -0.14976,0.627224 -0.18396,1.089672 -0.0603,0.819372 0.18999,1.536492 0.75091,2.151566 0.38523,0.464404 0.8301,0.820454 1.36147,1.105863 0.50278,0.269697 1.03649,0.496505 1.55613,0.630549 z m 3.372,0.507059 c 0.62929,0.126675 1.32264,-0.121614 1.8017,-0.556965 l 0.20607,-0.206879 c 6.5e-4,-6.55e-4 10e-4,-0.0013 0.002,-0.002 0.008,-0.01034 -5e-5,-0.02582 -0.0137,-0.02474 -0.35269,0.02477 -0.70715,-0.01538 -1.06333,-0.120457 -0.11597,-0.03417 -0.20298,-0.06651 -0.2609,-0.09705 -0.10356,-0.05555 -0.21763,-0.07321 -0.34668,-0.135443 -0.26304,-0.126793 -0.51508,-0.278784 -0.75624,-0.455834 -0.0177,-0.01291 -0.0429,-0.0048 -0.0498,0.01602 -0.0409,0.131921 -0.10704,0.25516 -0.19824,0.369691 -0.0956,0.148548 -0.27213,0.424855 -0.43533,0.497854 -0.017,0.0073 -0.0204,0.03024 -0.006,0.043 0.1338,0.122691 0.30816,0.260705 0.52323,0.414166 0.18518,0.132507 0.38784,0.216437 0.5976,0.258661 z m -1.5523,-0.595012 c 0.001,2.87e-4 0.002,3.41e-4 0.004,4.25e-4 0.0214,-5.8e-4 0.0384,-0.0054 0.0512,-0.01478 0.001,-0.0011 0.003,-0.0024 0.004,-0.0037 0.006,-0.0093 1.9e-4,-0.02339 -0.0124,-0.02342 -0.0214,5.82e-4 -0.0386,0.0057 -0.0516,0.01543 -0.01,0.008 -0.006,0.023 0.006,0.02596 z m 3.77977,-0.129515 c 0.013,0.0032 0.0259,-0.002 0.0334,-0.01187 0.003,-0.0045 0.006,-0.01001 0.006,-0.01607 0.0105,-0.103902 -0.01,-0.194152 -0.0604,-0.270881 -0.0105,-0.01446 -0.0333,-0.0037 -0.0287,0.01356 0.0282,0.088 0.0377,0.174206 0.0285,0.25845 -0.001,0.01207 0.007,0.02311 0.0184,0.02592 z m -1.20652,-0.439125 c 0.11885,0.02822 0.23924,0.04598 0.36115,0.05316 0.29349,0.01782 0.53849,0.0085 0.73509,-0.02801 0.43624,-0.08047 0.78349,-0.276453 1.04185,-0.587811 0.0444,-0.05368 0.0839,-0.108757 0.1182,-0.165382 0.10296,-0.169855 0.16039,-0.353008 0.17234,-0.549328 0.0313,-0.336429 -0.0532,-0.621676 -0.25353,-0.85567 -0.012,-0.01376 -0.0316,-0.01776 -0.048,-0.0098 -1.09459,0.535722 -2.57416,0.0034 -3.53337,-0.610849 -0.0209,-0.01326 -0.0479,0.0039 -0.0447,0.02844 0.0222,0.162944 0.0113,0.327834 -0.0327,0.494698 -0.0269,0.102899 -0.0209,0.300499 0.0175,0.592894 l 0.0451,0.745283 c 0.003,0.04612 0.0227,0.08958 0.056,0.121715 0.28393,0.269378 0.6217,0.487597 1.01322,0.654484 0.11577,0.04929 0.23305,0.08799 0.35189,0.116215 z m 0.33812,-2.313118 c 0.587,0.109075 1.22019,0.09708 1.70844,-0.159951 0.24876,-0.130765 0.45694,-0.314209 0.62453,-0.550273 0.10056,-0.141639 0.18645,-0.302163 0.25778,-0.48171 0.10018,-0.29997 0.0454,-0.567732 -0.16443,-0.803155 -0.0123,-0.01389 -0.0329,-0.01626 -0.048,-0.0054 -0.39173,0.282967 -0.83229,0.439452 -1.32139,0.469283 -1.23698,0.076 -2.50667,-0.246688 -3.08366,-1.468094 -0.009,-0.01987 -0.0349,-0.02485 -0.0512,-0.0098 -0.44371,0.420926 -0.60171,0.937452 -0.47383,1.549639 0.007,0.03699 0.0328,0.06799 0.0677,0.08308 0.22856,0.100055 0.41497,0.272191 0.55955,0.516135 0.38873,0.306018 0.84213,0.544412 1.35988,0.715391 0.17832,0.05869 0.36886,0.108496 0.56452,0.144855 z m -8.872,-2.58868 c 0.006,0.0023 0.0142,9.97e-4 0.0194,-0.0053 0.003,-0.0042 0.006,-0.0084 0.009,-0.01259 0.0197,-0.02942 0.0269,-0.05906 0.0216,-0.08887 -0.004,-0.02325 -0.0353,-0.0279 -0.0458,-0.0068 -0.0109,0.02064 -0.0162,0.05303 -0.016,0.09719 4e-5,0.0081 0.005,0.01403 0.0115,0.01632 z" />
            <path
         id="path72"
         style="font-variation-settings:normal;fill:#ffffff;fill-opacity:1;stroke:none;stroke-width:0.00587639;stroke-linecap:butt;stroke-linejoin:round;stroke-miterlimit:4;stroke-dasharray:none;stroke-dashoffset:0;stroke-opacity:1;paint-order:fill markers stroke"
         d="m 173.69939,-28.286207 c -0.37971,-0.09163 -0.74175,-0.242508 -1.09617,-0.404309 -0.4816,-0.225561 -0.94969,-0.493926 -1.34207,-0.85671 -0.2677,-0.242085 -0.50874,-0.514201 -0.71901,-0.807466 -0.32,-0.457738 -0.49833,-1.014183 -0.49145,-1.573493 0.006,-0.397966 0.0501,-0.797183 0.14807,-1.183392 0.10558,-0.362476 0.23596,-0.718014 0.36547,-1.071752 9e-5,-0.0039 -4.5e-4,-0.0065 -0.001,-0.0075 l -1.2e-4,-3e-5 -1e-4,-1.54e-4 -1.2e-4,-2.9e-5 -1.2e-4,-3.1e-5 -1.2e-4,-3.1e-5 -1.2e-4,-3e-5 -1.3e-4,6.3e-5 -1.2e-4,-3e-5 -1.3e-4,6.3e-5 c -0.005,0.0016 -0.0159,0.02828 -0.0194,0.03181 -0.21527,0.415188 -0.38345,0.85453 -0.52128,1.299934 -0.0245,0.04096 -0.0681,-0.0037 -0.0859,-0.02764 -0.12009,-0.142825 -0.18201,-0.323516 -0.23866,-0.498552 -0.0202,-0.06069 -0.0141,-0.125642 -0.0132,-0.188335 0.0115,-0.0361 0.029,-0.07229 0.0163,-0.110624 -0.009,-0.07093 -0.0361,-0.14262 -0.006,-0.212332 0.0671,-0.293636 0.14094,-0.58842 0.27343,-0.860572 0.20457,-0.444291 0.47376,-0.856139 0.76582,-1.247343 0.29327,-0.382843 0.63404,-0.737325 1.04172,-0.998962 0.20042,-0.123802 0.4221,-0.217863 0.65432,-0.260299 0.0381,-0.01178 0.0673,0.04063 0.0333,0.06402 -0.15837,0.112635 -0.31814,0.230152 -0.42863,0.393193 -0.19117,0.277271 -0.37156,0.564137 -0.54418,0.851859 -0.003,0.0045 -0.019,0.03275 -0.0176,0.03791 l 9e-5,1.53e-4 9e-5,1.54e-4 -3e-5,1.2e-4 1.2e-4,3.1e-5 c 4e-5,2.7e-5 2.7e-4,1.93e-4 3.4e-4,2.14e-4 l 1.2e-4,3.1e-5 1.2e-4,3.1e-5 1.3e-4,-6.3e-5 c 6e-5,-2e-6 3.4e-4,-5.4e-5 3.8e-4,-1.9e-5 0.001,-2.96e-4 0.004,-0.0022 0.008,-0.0063 0.20877,-0.246306 0.40352,-0.508929 0.64657,-0.724728 0.50738,-0.466525 1.13519,-0.804271 1.81028,-0.949511 0.44465,-0.09473 0.90792,-0.136312 1.35804,-0.05394 0.29887,0.05279 0.59363,0.125046 0.89301,0.175001 0.5952,0.11261 1.18371,0.259091 1.76588,0.425976 0.33615,0.09645 0.67001,0.21277 0.9692,0.397124 0.50218,0.304431 0.98713,0.636717 1.46464,0.978281 0.17294,0.126236 0.35355,0.25072 0.47828,0.428519 0.12669,0.16462 0.21056,0.359878 0.24334,0.564993 0.0634,0.351199 -0.0528,0.719552 -0.27767,0.992281 -0.25805,0.321322 -0.65784,0.490963 -1.05407,0.565694 -0.45668,0.0839 -0.92785,0.07204 -1.38526,-1.38e-4 -0.34476,-0.05561 -0.68086,-0.173389 -0.97489,-0.363609 -0.47548,-0.295482 -0.84639,-0.780943 -0.94969,-1.336701 -0.054,-0.298642 0.0465,-0.618727 0.26312,-0.831601 0.16342,-0.159439 0.37153,-0.284385 0.59969,-0.318907 0.27938,-0.03769 0.544,0.09728 0.77366,0.241012 0.11759,0.07172 0.23102,0.151924 0.32127,0.257186 0.11186,0.117501 0.22161,0.236916 0.3353,0.352663 -0.0121,-0.0679 -0.0487,-0.13657 -0.036,-0.206113 0.0512,-0.07387 0.14043,-0.110086 0.21572,-0.154215 0.17331,-0.09467 0.37877,-0.09292 0.56832,-0.06013 0.0799,0.01007 0.16568,0.03443 0.24091,0.04015 -0.0178,-0.02558 -0.0605,-0.03529 -0.0874,-0.05333 -0.13446,-0.06514 -0.2844,-0.107768 -0.4339,-0.124849 -0.20003,0.0023 -0.39496,0.05506 -0.59359,0.07593 -0.048,0.0058 -0.10305,0.01944 -0.14185,-0.0192 -0.21762,-0.186196 -0.46058,-0.341635 -0.72313,-0.45651 -0.0309,-0.02206 -0.0897,-0.0277 -0.0977,-0.07097 0.0167,-0.158523 0.0686,-0.312852 0.0919,-0.46952 -0.0195,-0.06577 -0.0149,-0.14198 -0.0517,-0.200807 -0.0464,-0.01703 -0.0418,0.04632 -0.0468,0.0735 -0.0216,0.194303 -0.0752,0.392927 -0.18997,0.554158 -0.0596,0.02832 -0.13321,0.0157 -0.19653,0.02828 -0.27092,0.0271 -0.53107,0.163014 -0.69552,0.382071 -0.14378,0.183216 -0.22904,0.405466 -0.27787,0.631597 -0.0442,0.162132 -0.0655,0.329965 -0.0701,0.498166 -0.002,0.06811 -0.0668,0.111333 -0.10199,0.163703 -0.16986,0.188992 -0.3176,0.396663 -0.42629,0.627526 -0.10437,0.212343 -0.15673,0.446144 -0.20204,0.676633 -0.0159,0.06594 -0.001,0.144287 -0.0425,0.201872 -0.0749,0.05461 -0.1717,0.06753 -0.25843,0.09548 -0.39996,0.106663 -0.82352,0.129227 -1.23164,0.05886 -0.21668,-0.0462 -0.43387,-0.09651 -0.6416,-0.174544 0.20148,0.147245 0.44564,0.214766 0.68055,0.286447 0.34805,0.105297 0.71184,0.140284 1.07517,0.137095 0.0238,-0.0072 0.0494,0.02205 0.0233,0.03769 -0.1776,0.122496 -0.3531,0.248246 -0.50704,0.400622 -0.36369,0.352639 -0.64421,0.793956 -0.78575,1.281159 -0.0431,0.172145 -0.0878,0.346325 -0.0951,0.523957 0.0234,0.01406 0.0219,-0.04043 0.0342,-0.04964 0.0537,-0.120956 0.0996,-0.246839 0.15601,-0.365674 0.0377,-0.01911 0.0531,0.03079 0.0489,0.05954 0.008,0.125146 -0.004,0.254656 0.0394,0.373571 0.009,0.06235 0.0166,0.125764 0.0516,0.180363 0.0615,0.117641 0.12354,0.241497 0.19091,0.351988 -0.0383,-0.104782 -0.0936,-0.20428 -0.12623,-0.311892 -0.0724,-0.203287 -0.0968,-0.421565 -0.0754,-0.636041 -0.007,-0.140104 0.0182,-0.283055 0.0893,-0.405537 0.17369,-0.332008 0.40795,-0.646071 0.73515,-0.839697 0.24498,-0.142313 0.52586,-0.250452 0.81362,-0.231816 0.2643,0.01625 0.49832,0.175236 0.66028,0.377296 0.0337,0.04219 0.0766,0.08656 0.0585,0.145257 -0.0362,0.559623 -0.0349,1.121303 5.1e-4,1.681044 0.0107,0.226474 -0.003,0.466 -0.12309,0.665081 -0.25783,0.471685 -0.66309,0.884664 -1.17897,1.062964 -0.22122,0.0722 -0.45423,0.10903 -0.68656,0.116767 -0.24263,0.0019 -0.47897,-0.06415 -0.71272,-0.121437 z m 3.31755,0.494469 c -0.21779,-0.05144 -0.41711,-0.159659 -0.59421,-0.294509 -0.15577,-0.117372 -0.3132,-0.235055 -0.45216,-0.37208 -0.009,-0.03786 0.0442,-0.05374 0.0669,-0.07471 0.17223,-0.12319 0.27835,-0.312425 0.39751,-0.482456 0.0762,-0.109191 0.14299,-0.224292 0.18347,-0.350864 0.0133,-0.03468 0.0565,-0.03762 0.0796,-0.01064 0.253,0.177131 0.51621,0.34444 0.79974,0.467669 0.13175,0.04616 0.26129,0.09999 0.38848,0.154492 0.25591,0.08832 0.52477,0.14976 0.79529,0.172054 0.14566,0.01463 0.2918,0.0022 0.43756,0.0079 0.0389,0.01791 -0.0108,0.05395 -0.0251,0.0721 -0.16083,0.174611 -0.34179,0.331873 -0.54926,0.44886 -0.41624,0.251478 -0.92139,0.38143 -1.40503,0.292133 -0.0412,-0.0089 -0.0821,-0.01903 -0.12285,-0.02995 z m 1.06824,-1.149986 c -0.34165,-0.09304 -0.66062,-0.258882 -0.95218,-0.457724 -0.14007,-0.101016 -0.27966,-0.206241 -0.3975,-0.333006 -0.0517,-0.06789 -0.031,-0.16037 -0.0449,-0.2393 -0.019,-0.303106 -0.0387,-0.605921 -0.068,-0.908124 -0.0181,-0.18502 0.0344,-0.366931 0.0528,-0.548368 0.0107,-0.08901 -0.0115,-0.178787 6.3e-4,-0.267529 0.0311,-0.03566 0.0783,0.0098 0.1094,0.02418 0.40213,0.251262 0.83697,0.453469 1.28789,0.59842 0.30599,0.09043 0.61765,0.168886 0.93733,0.187543 0.41395,0.03296 0.84039,-0.02173 1.21784,-0.197492 0.0295,-0.01502 0.0695,-0.02277 0.0904,0.01 0.19939,0.22313 0.27872,0.533255 0.25421,0.827654 -0.0124,0.310137 -0.15199,0.606338 -0.36626,0.82829 -0.31706,0.341313 -0.78058,0.515732 -1.23933,0.542319 -0.29506,0.01553 -0.59517,0.0089 -0.88243,-0.06686 z m 0.089,-2.367367 c -0.57021,-0.149545 -1.11804,-0.400259 -1.58703,-0.759465 -0.0903,-0.07756 -0.14243,-0.191023 -0.22594,-0.273127 -0.10876,-0.130613 -0.25709,-0.21641 -0.4044,-0.295165 -0.0646,-0.05329 -0.0601,-0.14794 -0.0757,-0.223241 -0.0455,-0.326389 -0.005,-0.67074 0.15578,-0.961865 0.0908,-0.165603 0.20599,-0.320291 0.34656,-0.446814 0.0264,-0.02983 0.0672,-0.0088 0.076,0.02565 0.19464,0.400946 0.49406,0.752427 0.87341,0.986661 0.26003,0.161896 0.54503,0.281424 0.84397,0.348286 0.36436,0.09938 0.74513,0.122117 1.12205,0.119092 0.48604,-0.0026 0.97814,-0.112206 1.3926,-0.376059 0.0618,-0.03461 0.11633,-0.08804 0.18488,-0.107871 0.0555,0.0276 0.083,0.09141 0.11865,0.139623 0.11614,0.173193 0.15591,0.397118 0.0977,0.598313 -0.0499,0.213345 -0.1655,0.40483 -0.28736,0.584237 -0.23805,0.340065 -0.59988,0.587653 -1.00141,0.69132 -0.53344,0.140129 -1.10117,0.084 -1.62972,-0.04958 z" />
            </g>
         </g>
         
         <path
         style="fill:#000000;fill-opacity:1;stroke:#000000;stroke-width:0.762754;stroke-opacity:1;paint-order:fill markers stroke"
         d="m 90.789772,89.98759 c -0.181833,-6.185371 2.054958,-9.563126 1.041386,-16.631272 0,0 -0.112689,1.308145 2.798859,2.606627 3.042473,5.302703 3.805529,11.994508 0.512311,13.964676 z"
         id="path2"
         sodipodi:nodetypes="ccccc" />
         <path
         style="fill:#ba2c35;fill-opacity:1;stroke:#000000;stroke-width:0.370297;stroke-linejoin:round;stroke-dasharray:none;stroke-opacity:1;paint-order:fill markers stroke"
         d="m 88.677599,84.980988 c 3.681613,1.806836 7.994912,-0.549606 10.802293,-2.631742 3.285208,2.639622 2.290848,5.434115 1.750538,6.303377 -2.219886,3.57139 -5.569337,3.66314 -6.961992,3.933848 C 88.703283,92.93 87.271277,87.768073 88.677599,84.980988 Z"
         id="path12"
         sodipodi:nodetypes="ccscc" /><g
         id="rightLeg"
         transform="translate(0.00826823,-0.01653646)">
            <path
         style="fill:none;stroke:#000000;stroke-width:2;stroke-dasharray:none;stroke-opacity:1;paint-order:fill markers stroke"
         d="m 95.550066,93.202653 -0.0056,4.179372"
         id="rightFemur"
         sodipodi:nodetypes="cc" />
            <g
         id="rightTibia">
            <path
         style="baseline-shift:baseline;display:inline;overflow:visible;opacity:1;vector-effect:none;paint-order:fill markers stroke;enable-background:accumulate;stop-color:#000000;stop-opacity:1"
         d="m 96.546875,97.378906 -2,0.01172 -0.543632,7.005854 3.07576,-0.0117 z"
         id="A1"
         sodipodi:nodetypes="ccccc" /><g
         id="rightFoot"><g
         id="rightFootTip"><path
            style="fill:#000000;fill-opacity:1;stroke:none;stroke-width:0.000264583;stroke-linejoin:round;stroke-dasharray:none;paint-order:fill markers stroke"
            d="m 96.191228,107.17103 -0.3016,-0.0347 -1.20015,0.33075 c 0.23776,0.17054 0.67658,0.50943 1.09382,0.62123 0.76388,0.20468 1.53525,0.25792 2.80462,0.30344 z"
            id="path49"
            sodipodi:nodetypes="cccscc" /><path
            id="path4"
            style="stroke-width:0.050863"
            d="m 97.844958,101.57333 c -0.0985,2.46866 -0.91907,4.70495 -2.02727,6.43888 1.05636,0.22085 2.10161,0.40136 3.20188,0.37569 1.461802,-0.0339 2.830922,-0.40261 4.107242,-1.10587 0.16819,-0.0929 0.27638,-0.17229 0.32453,-0.23875 0.08,-0.11054 0.12309,-0.23865 0.12919,-0.38344 0.0115,-0.27771 0.0258,-0.47364 0.0424,-0.58859 0.004,-0.03 0.0162,-0.0585 0.0346,-0.0822 0.32281,-0.41878 0.51766,-0.92752 0.58446,-1.52601 0.1024,-0.91892 -0.16023,-1.68285 -0.78755,-2.29185 -0.30721,-0.29806 -0.66828,-0.53616 -1.08366,-0.7152 -1.41603,-0.61036 -2.979522,-0.42709 -4.392492,0.0744 -0.009,0.003 -0.12575,0.0468 -0.13333,0.0429 z"
            sodipodi:nodetypes="cccccccccccccc" /><path
            id="path5"
            style="fill:#ffc122;fill-opacity:1;stroke-width:0.050863"
            d="m 103.08237,106.18545 a 0.02543151,0.02543151 0 0 0 -0.016,0.006 c -0.3947,0.34316 -0.8319,0.60704 -1.31103,0.79117 -0.71344,0.27432 -1.40744,0.45744 -2.082562,0.55035 -1.17663,0.16208 -2.34538,0.20513 -3.50573,0.12816 h -5.2e-4 a 0.00356041,0.00356041 0 0 1 -5.1e-4,0 0.00356041,0.00356041 0 0 1 -5.2e-4,5.1e-4 0.00356041,0.00356041 0 0 1 -5.2e-4,0 0.00356041,0.00356041 0 0 1 -5.1e-4,5.2e-4 0.00356041,0.00356041 0 0 1 0,5.2e-4 0.00356041,0.00356041 0 0 1 -5.2e-4,0 0.00356041,0.00356041 0 0 1 0,5.2e-4 0.00356041,0.00356041 0 0 1 0,5.1e-4 0.00356041,0.00356041 0 0 1 0,5.2e-4 0.00356041,0.00356041 0 0 1 0,5.2e-4 0.00356041,0.00356041 0 0 1 0,5.1e-4 0.00356041,0.00356041 0 0 1 0,5.2e-4 0.00356041,0.00356041 0 0 1 5.2e-4,5.2e-4 0.00356041,0.00356041 0 0 1 0,5.1e-4 0.00356041,0.00356041 0 0 1 5.1e-4,0 0.00356041,0.00356041 0 0 1 5.2e-4,5.2e-4 c 0.0946,0.0271 0.19656,0.0495 0.30541,0.0672 1.91346,0.31026 3.878112,0.28134 5.675102,-0.51263 0.32282,-0.14242 0.60841,-0.27873 0.85628,-0.40928 a 0.19378811,0.19480537 81.1 0 0 0.10077,-0.13746 c 0.0291,-0.16208 0.0305,-0.31815 0.005,-0.4687 a 0.02543151,0.02543151 0 0 0 -0.0253,-0.0212 z" /><path
            id="path47"
            style="fill:#ffc122;fill-opacity:1;stroke-width:0.050863"
            d="m 97.918338,102.06116 c -0.16679,1.86478 -0.80351,3.64669 -1.59421,5.11493 1.27536,0.12641 2.58716,0.0187 3.839552,-0.21032 0.6185,-0.11343 1.2288,-0.29763 1.80661,-0.61857 0.24177,-0.13462 0.47222,-0.2736 0.69195,-0.41703 0.54593,-0.3574 0.88154,-0.83964 1.00666,-1.44694 0.0824,-0.39928 0.10268,-0.74078 -0.0362,-1.11208 -0.46743,-1.25174 -1.98873,-1.75711 -3.19877,-1.76682 -0.845102,-0.007 -1.683432,0.14538 -2.515612,0.45683 z"
            sodipodi:nodetypes="cccccccccc" /></g><g
         id="rightHeel"
         inkscape:transform-center-x="2.3152222"
         inkscape:transform-center-y="-3.390982"><path
            id="path45"
            style="fill:#000000;fill-opacity:1;stroke-width:0.050863"
            d="m 94.296608,100.08632 c -0.90901,0.0666 -1.9722,0.22586 -2.35526,1.19822 -0.006,0.0157 -0.0192,0.0275 -0.0354,0.0323 -0.822847,0.22433 -1.432041,0.67548 -1.827382,1.35408 -0.545015,0.9359 -0.591556,1.97369 0.127712,2.81444 0.0179,0.0208 0.02806,0.0473 0.02883,0.0747 0.0055,0.15807 0.0032,0.32354 -0.0068,0.49606 -0.01,0.17828 0.03355,0.33436 0.130415,0.46878 0.446982,0.61822 1.117964,1.10646 1.805485,1.42964 0.54363,0.25535 1.18704,0.39409 1.78152,0.47081 0.17919,0.0232 0.31606,-0.042 0.41094,-0.1955 0.0818,-0.13257 0.14884,-0.27241 0.20094,-0.41948 0.007,-0.0218 0.0311,-0.0337 0.0529,-0.0269 0.38787,0.12028 0.77883,0.2232 1.17308,0.30909 1.20243,-1.51082 1.91836,-5.33746 2.10161,-5.95555 0.18972,-0.63989 0.12077,-1.00753 -0.82591,-1.56477 -0.19677,-0.11583 -0.3351,-0.18465 -0.48668,-0.26042 -0.0443,0.0786 -0.10222,0.2094 -0.17033,0.34377 -0.20041,0.39532 -0.29509,0.79084 -0.69943,0.94654 -0.38641,0.15421 -1.23329,0.18032 -1.44396,-0.0535 l 0.65747,-1.42543 c -0.22139,-0.0312 -0.40058,-0.0374 -0.61982,-0.0367 z"
            sodipodi:nodetypes="ccccccccccccccscccccccc" /><path
            id="path48"
            style="fill:#ffc122;fill-opacity:1;stroke-width:0.050863"
            d="m 90.721832,105.8142 a 0.01780206,0.01780206 0 0 0 -0.01512,0.0149 c -0.02001,0.11106 -0.01803,0.20824 0.0063,0.29152 a 0.22379729,0.22176277 17.082574 0 0 0.04122,0.0763 c 0.264548,0.3159 0.445214,0.52189 0.542068,0.61799 0.682478,0.67869 1.731778,0.96618 2.662638,1.08338 a 0.14801139,0.14801139 0 0 0 0.15424,-0.0896 c 0.073,-0.17199 0.10477,-0.3511 0.0954,-0.53768 a 0.03306096,0.03356959 5.1825743 0 0 -0.025,-0.0307 c -0.96032,-0.24156 -1.91489,-0.53519 -2.787573,-0.97591 -0.243452,-0.12311 -0.463401,-0.27194 -0.660311,-0.44586 a 0.01780206,0.01780206 0 0 0 -0.01391,-0.004 z" /><path
            id="path46"
            style="fill:#ffc122;fill-opacity:1;stroke-width:0.050863"
            d="m 94.390738,100.56669 c -0.75248,0.0216 -1.45451,0.038 -1.84636,0.78598 -0.35411,0.67555 0.21036,1.32963 0.84695,1.47944 0.0138,0.004 0.0167,0.0218 0.005,0.0295 -0.0144,0.009 -0.0334,0.0126 -0.0575,0.0114 -0.51152,-0.0211 -1.1945,-0.35624 -1.26083,-0.93463 -0.002,-0.0188 -0.02,-0.0314 -0.0386,-0.0267 -0.691177,0.17255 -1.20613,0.56771 -1.545348,1.18541 -0.379686,0.69212 -0.426884,1.49172 0.128607,2.09457 0.142141,0.15413 0.497916,0.36159 1.068111,0.62241 1.37061,0.62752 2.71076,1.07845 4.19561,1.30611 0.0734,0.0108 0.34992,0.0475 0.46866,0.0413 0.43044,-0.0225 0.91678,-0.17959 1.32847,-0.30974 0.0569,-0.17708 0.26574,-4.76837 0.2561,-4.76482 -0.0311,0.0115 -0.0546,0.0373 -0.0631,0.0692 -0.0308,0.11605 -0.0897,0.22197 -0.17632,0.31788 -0.35323,0.3897 -0.79047,0.55899 -1.31226,0.5078 -0.0188,-0.004 -0.0207,-0.0298 -0.003,-0.0362 0.32006,-0.075 0.59795,-0.21391 0.83398,-0.41674 0.24286,-0.20887 0.33902,-0.49118 0.28775,-0.84665 -0.0408,-0.28518 -0.62275,-0.68997 -0.85664,-0.82063 -0.0183,-0.0104 -0.0416,-0.004 -0.0513,0.0151 -0.0989,0.18872 -0.17951,0.33985 -0.24154,0.45429 -0.22837,0.42127 -0.55294,0.6124 -1.0377,0.67392 -0.42194,0.0531 -0.77649,0.0392 -1.06371,-0.0415 -0.18318,-0.0519 -0.44307,-0.16865 -0.31626,-0.42953 0.19255,-0.39614 0.34982,-0.70837 0.47145,-0.93658 0.007,-0.0142 -0.004,-0.0312 -0.02,-0.0306 z"
            sodipodi:nodetypes="cccccccccccsccccccccccccccccc" /></g></g>
            
            </g>
            <path
         style="font-variation-settings:normal;vector-effect:none;fill:#ba2c35;fill-opacity:1;stroke:#000000;stroke-width:0.370297;stroke-linecap:butt;stroke-linejoin:round;stroke-miterlimit:4;stroke-dasharray:none;stroke-dashoffset:0;stroke-opacity:1;-inkscape-stroke:none;paint-order:fill markers stroke;stop-color:#000000"
         d="m 93.208659,92.134317 -0.07016,4.326427 5.425573,-0.374179 -0.631426,-5.19171"
         id="path51-6" />
            <circle
         style="font-variation-settings:normal;vector-effect:none;fill:none;fill-opacity:1;stroke:#000000;stroke-width:0.270825;stroke-linecap:butt;stroke-linejoin:miter;stroke-miterlimit:4;stroke-dasharray:none;stroke-dashoffset:0;stroke-opacity:1;-inkscape-stroke:none;paint-order:fill markers stroke"
         id="rightKnee"
         cx="95.542259"
         cy="97.359428"
         r="0.27063236" />
         </g>
         
         <path
         id="path13"
         style="fill:#fcc028;stroke:#000000;stroke-width:0.2;stroke-linejoin:round;paint-order:fill markers stroke"
         transform="rotate(-16.283606)"
         d="m 72.177328,110.40673 a 1.0365657,1.5628221 0 0 1 -1.036566,1.56282 1.0365657,1.5628221 0 0 1 -1.036565,-1.56282 1.0365657,1.5628221 0 0 1 1.036565,-1.56282 1.0365657,1.5628221 0 0 1 1.036566,1.56282 z" />
         <path
         id="ellipse13"
         style="fill:#fcc028;fill-opacity:1;stroke:#000000;stroke-width:0.2;stroke-linejoin:round;stroke-dasharray:none;stroke-opacity:1;paint-order:fill markers stroke"
         d="M 74.039473 108.0236 A 0.73969704 1.1152356 0 0 0 73.550295 109.07288 A 0.73969704 1.1152356 0 0 0 74.289912 110.188 A 0.73969704 1.1152356 0 0 0 74.40496 110.17452 C 74.446017 109.5415 74.353501 108.82057 74.039473 108.0236 z "
         transform="rotate(-15.877479)" />
         <path
         d="m 69.489644,86.87702 c 0,0 0.213027,-0.07213 0.779808,-0.244105 0.418909,-0.127109 1.095887,-0.326497 1.850486,-0.519606 0.6726,-0.172125 1.458133,-0.352474 2.190779,-0.46674 0.346641,-0.05406 0.682617,-0.09351 0.988574,-0.109985 0.298651,-0.01608 0.562942,-0.0099 0.777255,0.02359 0.240525,0.03683 0.474288,0.112939 0.706412,0.22362 0.229064,0.109222 0.454262,0.251021 0.680328,0.419042 0.449642,0.334192 0.883454,0.757015 1.347987,1.205996 0.460553,0.445134 0.942629,0.907117 1.477143,1.301525 0.270882,0.199879 0.556796,0.383619 0.862688,0.540218 0.310815,0.15912 0.643428,0.290814 1.002836,0.382742 0.849183,0.215706 1.678244,0.277805 2.421366,0.261391 0.796621,-0.0176 1.512977,-0.125828 2.080966,-0.244699 1.475123,-0.308721 2.011933,-0.60739 2.029301,-0.615496 0,0 -0.275603,-0.232749 -0.275603,-0.232749 0,0 -0.275602,-0.23275 -0.275602,-0.23275 0.01737,-0.0081 -0.442028,0.280578 -1.753905,0.594036 -0.506513,0.121026 -1.140576,0.233527 -1.845125,0.266817 -0.654498,0.03092 -1.38762,-0.0056 -2.147357,-0.178504 -0.293428,-0.06574 -0.580126,-0.166844 -0.863704,-0.299946 -0.279419,-0.131149 -0.550733,-0.290958 -0.817946,-0.473074 -0.531514,-0.36225 -1.021182,-0.794593 -1.512514,-1.232087 -0.487428,-0.434019 -0.962841,-0.86037 -1.456384,-1.195677 -0.249789,-0.169704 -0.504607,-0.316373 -0.768698,-0.429327 -0.268585,-0.114875 -0.54617,-0.194595 -0.835879,-0.228174 -0.255533,-0.02899 -0.549533,-0.02395 -0.858504,0.0022 -0.31896,0.02697 -0.662837,0.07721 -1.011117,0.140752 -0.736293,0.134339 -1.518204,0.332927 -2.182825,0.519177 -0.750004,0.210178 -1.411066,0.421567 -1.826117,0.558891 -0.557421,0.184428 -0.764649,0.262953 -0.764649,0.262953 z"
         id="path3"
         style="fill:#000000"
         transform="translate(0.00826823,-0.01653646)" />
         <path
         style="fill:#000000;fill-opacity:1;fill-rule:nonzero;stroke:none;stroke-width:0.650978;stroke-opacity:1;-inkscape-stroke:none;paint-order:fill markers stroke"
         d="m 121.28101,43.588253 c 0,0 0.32858,-0.389519 1.22729,-1.363692 0.66424,-0.720014 1.7451,-1.864795 2.98572,-3.049912 1.10581,-1.056336 2.42272,-2.225528 3.7173,-3.147703 0.61252,-0.436313 1.22211,-0.818796 1.80116,-1.106413 0.56523,-0.280749 1.0905,-0.465569 1.5515,-0.526509 0.51643,-0.0708 1.06792,-0.01381 1.65872,0.152302 0.58301,0.163923 1.19851,0.432472 1.84796,0.782166 1.29175,0.695535 2.66148,1.679825 4.12356,2.722013 1.44956,1.033257 2.96199,2.102466 4.49404,2.92035 0.77641,0.414489 1.56242,0.76702 2.35418,1.019445 0.80451,0.256487 1.61799,0.410577 2.43505,0.419907 1.92866,0.01738 3.62899,-0.428969 5.06443,-1.05393 1.53878,-0.669954 2.80888,-1.560725 3.77526,-2.370141 2.50981,-2.102132 3.19401,-3.448453 3.21806,-3.487152 0,0 -0.82608,-0.513403 -0.82608,-0.513403 0,0 -0.82608,-0.513403 -0.82608,-0.513403 0.024,-0.0387 -0.52079,1.216697 -2.70501,3.207572 -0.84332,0.768672 -1.94697,1.609228 -3.2861,2.257058 -1.244,0.601809 -2.72494,1.053903 -4.42576,1.100985 -0.65561,0.02145 -1.34154,-0.07266 -2.0607,-0.268998 -0.70861,-0.19346 -1.43659,-0.482594 -2.18397,-0.844497 -1.48662,-0.719866 -2.97748,-1.690735 -4.47792,-2.676393 -1.48853,-0.977827 -2.94409,-1.941005 -4.3232,-2.606127 -0.69799,-0.336628 -1.3775,-0.597502 -2.03371,-0.746025 -0.66738,-0.151049 -1.30915,-0.185462 -1.91793,-0.06655 -0.53619,0.106841 -1.10588,0.349554 -1.67896,0.669608 -0.59162,0.330403 -1.20342,0.752652 -1.80748,1.219813 -1.27704,0.987619 -2.56443,2.210919 -3.63724,3.305168 -1.21063,1.234827 -2.24555,2.404759 -2.88967,3.153668 -0.86507,1.005797 -1.17442,1.410794 -1.17442,1.410794 z"
         id="path1"
         inkscape:linked-fill="path3"
         sodipodi:nodetypes="cssc"
         transform="matrix(0.4418679,0.10934327,-0.17416597,0.2774094,23.499317,61.50743)" />
         <g
         id="rightArm"
         transform="translate(0.00826823,-0.01653646)">
            <path
         style="fill:none;stroke:#000000;stroke-width:1.77606;stroke-linejoin:round;stroke-dasharray:none;stroke-opacity:1;paint-order:fill markers stroke"
         d="m 92.936449,75.602997 -0.869783,7.348 7.713525,1.315659"
         id="rightTopMember"
         sodipodi:nodetypes="ccc"
         inkscape:transform-center-x="-2.5047689"
         inkscape:transform-center-y="4.4229733" />
            <g
         id="g36"
         transform="matrix(0.54542992,-0.11955476,0.11955476,0.54542992,80.679041,45.683591)">
            <path
         style="font-variation-settings:normal;opacity:1;vector-effect:none;fill:#ffffff;fill-opacity:1;stroke:none;stroke-width:0.188976;stroke-linecap:square;stroke-linejoin:round;stroke-miterlimit:4;stroke-dasharray:none;stroke-dashoffset:0;stroke-opacity:1;-inkscape-stroke:none;paint-order:stroke markers fill"
         d="m 79.963623,269.3042 c -5.151068,0.0266 -10.335478,1.65014 -14.364013,4.90942 -0.318417,0.23231 -0.852896,0.66643 -1.07129,0.76831 1.024465,-1.26779 2.353351,-2.27834 3.617744,-3.28392 0.04512,-0.57285 -0.868224,-0.50213 -1.297919,-0.68287 -2.535787,-0.43075 -5.184997,-0.0237 -7.473389,1.15454 -4.456246,2.0696 -7.765443,6.74048 -7.657227,11.72729 0.09956,2.6283 1.615289,5.37683 4.171387,6.29712 0.640716,-0.0642 0.481147,-0.99024 0.686768,-1.44043 0.501648,-2.04687 1.069115,-4.25313 2.593994,-5.81176 -1.875444,4.13435 -2.561817,8.93732 -1.45459,13.38354 0.850481,3.27131 2.706471,6.4328 5.713194,8.13861 3.434786,2.07432 7.593501,2.57073 11.529726,2.25494 0.423066,-0.0467 0.966083,-0.16707 1.305665,-0.17553 -1.999324,1.08254 -4.341775,0.92146 -6.520509,1.07983 -0.49832,0.3957 0.267156,0.96087 0.445165,1.36769 1.389709,1.85948 3.704351,3.09586 6.060939,2.81493 2.579465,-0.0944 5.033453,-1.23834 6.869251,-3.03301 2.698642,-2.52014 4.708192,-5.85355 5.37611,-9.50801 0.08842,2.48615 -1.092123,4.80325 -2.24292,6.95996 -0.166281,0.61977 0.643535,0.46602 0.969971,0.29395 3.171931,-0.94808 5.659938,-3.47357 6.999023,-6.448 1.363455,-3.0163 2.012301,-6.44118 1.549317,-9.71704 0.735646,2.48254 0.48588,5.17044 -0.102739,7.65874 -0.02941,0.47755 -0.60104,1.17541 -0.107955,1.53413 0.683537,-0.0962 1.019793,-0.90934 1.479737,-1.35693 2.136046,-2.86592 2.956412,-6.51274 3.172667,-10.02416 0.17051,-4.96445 -1.664697,-10.01549 -5.053527,-13.65651 -2.766333,-2.79961 -6.661908,-4.1582 -10.460205,-4.84131 -1.563393,-0.26021 -3.149644,-0.3807 -4.734375,-0.36352 z m -2.92749,5.03027 c 2.476905,-0.0205 5.111348,0.38402 7.230225,1.75733 0.272393,0.21804 0.147957,0.72115 -0.276612,0.53906 -1.895908,-0.30717 -3.652991,-1.20453 -5.555663,-1.54883 -1.624763,-0.36363 -3.293467,-0.57735 -4.96045,-0.4978 1.183703,-0.1774 2.3758,-0.2376 3.5625,-0.24976 z m -5.501709,4.2063 c 2.634654,0.3006 5.289742,1.01797 7.549316,2.43701 0.17658,0.15776 0.667608,0.44226 0.526611,0.69312 -1.521455,-0.24719 -2.791362,-1.21449 -4.22583,-1.75 -1.31613,-0.56504 -2.664255,-1.0712 -4.061523,-1.39624 l 0.124638,0.01 z m -4.661621,4.1958 c 2.464068,0.74484 4.737987,2.093 6.708252,3.73389 0.210526,0.22596 0.767464,0.71383 0.502441,0.95239 -1.154301,-0.39576 -2.030238,-1.3681 -3.039062,-2.03125 -1.375724,-1.00767 -2.821023,-1.92621 -4.34082,-2.70141 l 0.120551,0.0331 z"
         id="path28"
         transform="scale(0.26458333)" />
            <path
         style="fill:#000000;fill-opacity:1;fill-rule:nonzero;stroke:none;stroke-width:0.4;stroke-linecap:square;stroke-linejoin:round;stroke-dasharray:none;stroke-opacity:1;paint-order:stroke markers fill"
         d="m 16.931524,72.917807 c 0.0206,-0.01062 0.06154,-0.01827 0.123733,-0.06155 0.31503,-0.219195 0.796696,-0.721321 1.82812,-1.119277 0.649275,-0.250511 1.280623,-0.35757 1.812691,-0.395498 0.165677,-0.01181 0.328566,-0.01845 0.487464,-0.02075 1.05555,-0.0195 1.902999,0.173142 2.57215,0.466422 0.500919,0.219546 0.935442,0.510101 1.301272,0.857128 0.14416,0.136751 0.27337,0.278399 0.389037,0.421984 0.415903,0.516291 0.701522,1.113682 0.863757,1.733893 0.106537,0.407281 0.169435,0.862436 0.158804,1.338955 -0.0032,0.144769 -0.01408,0.302926 -0.03675,0.470144 -0.06887,0.52962 -0.208632,1.162703 -0.464698,1.708955 -0.124067,0.264664 -0.258067,0.471943 -0.394717,0.636492 -0.241263,0.29052 -0.470719,0.411822 -0.485686,0.472758 -0.0036,0.0145 0.0055,0.03203 0.0066,0.03845 0.0036,0.0053 0.0092,0.02451 0.02219,0.03214 0.05354,0.0314 0.35082,-0.03913 0.669193,-0.343983 0.177703,-0.170156 0.345592,-0.395486 0.495788,-0.679104 0.307408,-0.58048 0.466445,-1.261476 0.550482,-1.809015 0.02711,-0.183297 0.04122,-0.356381 0.04709,-0.514522 0.01938,-0.521274 -0.05115,-1.016303 -0.172941,-1.457635 -0.185491,-0.672155 -0.514056,-1.310188 -0.972584,-1.862066 -0.127563,-0.153533 -0.269208,-0.305243 -0.426052,-0.452171 -0.398099,-0.372931 -0.866259,-0.687801 -1.403718,-0.925981 -0.719645,-0.318917 -1.619808,-0.525153 -2.726958,-0.498745 -0.166552,0.0046 -0.337085,0.01518 -0.510685,0.03311 -0.556318,0.05744 -1.219609,0.187419 -1.892417,0.47906 -0.98927,0.428817 -1.618708,1.064007 -1.786408,1.322715 -0.0414,0.06387 -0.04633,0.107713 -0.05473,0.128095 z"
         id="path29"
         sodipodi:nodetypes="cssc"
         transform="translate(0.00826823,-0.01653646)" />
            <path
         style="font-variation-settings:normal;opacity:1;vector-effect:none;fill:#000000;fill-opacity:1;fill-rule:nonzero;stroke:none;stroke-width:0.4;stroke-linecap:square;stroke-linejoin:round;stroke-miterlimit:4;stroke-dasharray:none;stroke-dashoffset:0;stroke-opacity:1;-inkscape-stroke:none;paint-order:stroke markers fill;stop-color:#000000;stop-opacity:1"
         d="m 17.206185,74.678645 c 0.0047,0.0029 0.01318,0.01092 0.02834,0.01763 0.02836,0.01256 0.09402,0.03018 0.178866,0.06016 0.06249,0.02208 0.130355,0.0488 0.198234,0.08016 0.01636,0.0076 0.03311,0.01556 0.05027,0.02399 0.162554,0.07993 0.354658,0.195405 0.579238,0.334521 0.01396,0.0086 0.113202,0.07035 0.12716,0.079 0.339919,0.211466 0.94511,0.742301 1.153928,0.825634 0.06991,0.0279 0.127084,8.13e-4 0.152669,0.0014 -0.0028,-0.02544 0.01929,-0.08536 -0.01823,-0.152827 -0.144018,-0.258972 -0.781783,-0.649612 -1.176926,-0.865389 -0.04617,-0.02521 -0.09204,-0.04889 -0.137394,-0.07113 -0.245391,-0.120306 -0.465616,-0.193727 -0.643728,-0.245902 -0.01886,-0.0055 -0.03718,-0.0108 -0.05499,-0.01586 -0.07534,-0.02143 -0.144658,-0.04018 -0.212808,-0.05503 -0.09215,-0.02008 -0.159398,-0.02759 -0.192,-0.02478 -0.01671,0.0014 -0.02749,0.007 -0.03262,0.0084 z"
         id="path30"
         sodipodi:nodetypes="cc"
         transform="translate(0.00242171,-0.01068994)" />
            <path
         style="font-variation-settings:normal;opacity:1;vector-effect:none;fill:#000000;fill-opacity:1;fill-rule:nonzero;stroke:none;stroke-width:0.4;stroke-linecap:square;stroke-linejoin:round;stroke-miterlimit:4;stroke-dasharray:none;stroke-dashoffset:0;stroke-opacity:1;-inkscape-stroke:none;paint-order:stroke markers fill;stop-color:#000000;stop-opacity:1"
         d="m 17.085975,74.614733 c 0.0046,0.0023 0.01249,0.0081 0.02766,0.01379 0.05905,0.022 0.294257,0.08675 0.482259,0.17195 0.01637,0.0074 0.03296,0.01515 0.04978,0.02319 0.186283,0.08907 0.393676,0.212648 0.624952,0.360378 0.0428,0.02734 0.08613,0.05532 0.130142,0.08393 0.34437,0.223873 0.915076,0.769414 1.115326,0.855695 0.0661,0.02848 0.124338,0.0041 0.149339,0.0053 -0.001,-0.02465 0.02365,-0.08388 -0.0082,-0.150521 -0.124693,-0.260623 -0.734066,-0.664389 -1.140861,-0.899176 -0.04714,-0.02721 -0.09418,-0.0529 -0.140914,-0.07713 -0.252932,-0.131172 -0.488895,-0.21598 -0.691543,-0.277296 -0.01835,-0.0056 -0.03638,-0.0109 -0.05411,-0.01607 -0.233433,-0.06811 -0.426853,-0.102808 -0.513161,-0.09912 -0.01615,6.89e-4 -0.02576,0.0042 -0.03064,0.0051 z"
         id="path31"
         sodipodi:nodetypes="cc"
         transform="rotate(-13.066872,13.539751,68.9354)" />
            <path
         style="font-variation-settings:normal;vector-effect:none;fill:#000000;fill-opacity:1;fill-rule:nonzero;stroke:none;stroke-width:0.4;stroke-linecap:square;stroke-linejoin:round;stroke-miterlimit:4;stroke-dasharray:none;stroke-dashoffset:0;stroke-opacity:1;-inkscape-stroke:none;paint-order:stroke markers fill;stop-color:#000000"
         d="m 17.023607,74.993384 c 0.0055,0.0026 0.01575,0.01168 0.03318,0.01605 0.0612,0.01533 0.270789,0.01618 0.483823,0.07149 0.01833,0.0048 0.03745,0.01002 0.05731,0.01579 0.190775,0.05542 0.422527,0.14927 0.675132,0.277142 0.19109,0.09673 0.346751,0.188118 0.501242,0.278648 0.05967,0.03496 0.119383,0.07265 0.178868,0.112301 0.221046,0.14734 0.412553,0.314897 0.53288,0.36011 0.0709,0.02664 0.149238,0.0023 0.179382,0.004 0.0015,-0.02975 0.03278,-0.107766 0.0013,-0.184037 -0.05663,-0.137352 -0.263574,-0.319917 -0.518342,-0.481102 -0.06643,-0.04203 -0.133092,-0.08101 -0.198907,-0.117779 -0.163137,-0.09115 -0.359589,-0.173192 -0.569873,-0.238087 -0.289843,-0.08945 -0.548104,-0.12957 -0.75559,-0.149406 -0.02156,-0.0021 -0.0422,-0.0039 -0.06195,-0.0055 -0.250432,-0.02078 -0.437402,-0.01567 -0.50916,0.01729 -0.01671,0.0077 -0.02475,0.01928 -0.02934,0.02308 z"
         id="path32"
         sodipodi:nodetypes="cc"
         transform="matrix(1.1456585,-0.22608812,0.26590488,0.97410685,-20.365191,3.5131128)" />
            <path
         style="font-variation-settings:normal;opacity:1;vector-effect:none;fill:#000000;fill-opacity:1;fill-rule:nonzero;stroke:none;stroke-width:0.4;stroke-linecap:square;stroke-linejoin:round;stroke-miterlimit:4;stroke-dasharray:none;stroke-dashoffset:0;stroke-opacity:1;-inkscape-stroke:none;paint-order:stroke markers fill"
         d="m 18.252116,71.90052 c -0.0031,-0.01108 0.0029,-0.03807 -0.02087,-0.06944 -0.0495,-0.06545 -0.24596,-0.209338 -0.561122,-0.298763 -0.1961,-0.05564 -0.426945,-0.08723 -0.690713,-0.07869 -0.447664,0.01449 -0.922668,0.142641 -1.376805,0.359555 -0.70169,0.334959 -1.196373,0.831173 -1.518073,1.301663 -0.01618,0.02366 -0.03223,0.04771 -0.04814,0.07215 -0.331274,0.508979 -0.57514,1.155181 -0.575115,1.855454 1.1e-5,0.238605 0.03997,0.474014 0.112003,0.692215 0.07637,0.231341 0.186131,0.435645 0.315076,0.604205 0.153525,0.200693 0.325138,0.339473 0.489891,0.427814 0.227266,0.121859 0.422457,0.137609 0.509679,0.126278 0.06405,-0.0083 0.09475,-0.04016 0.110637,-0.04804 -0.01705,-0.01023 -0.04065,-0.04134 -0.09592,-0.06551 -0.07497,-0.0328 -0.232989,-0.07645 -0.414172,-0.197801 -0.131307,-0.08794 -0.270641,-0.213838 -0.397613,-0.392477 -0.106867,-0.150354 -0.199701,-0.33119 -0.264854,-0.536399 -0.06147,-0.193592 -0.09569,-0.401086 -0.09568,-0.610283 2.5e-5,-0.638598 0.219321,-1.236074 0.527359,-1.711777 0.01474,-0.02276 0.02962,-0.04517 0.04463,-0.06721 0.298847,-0.438856 0.761997,-0.898392 1.415119,-1.209455 0.428234,-0.203826 0.865832,-0.322327 1.273668,-0.347404 0.239781,-0.01474 0.447731,0.0038 0.62749,0.039 0.289202,0.05657 0.485405,0.153293 0.562917,0.166144 0.0375,0.0062 0.05868,-0.0096 0.0706,-0.01122 z"
         id="path33"
         sodipodi:nodetypes="cssc" />
            <path
         style="font-variation-settings:normal;opacity:1;vector-effect:none;fill:#000000;fill-opacity:1;fill-rule:nonzero;stroke:none;stroke-width:0.4;stroke-linecap:square;stroke-linejoin:round;stroke-miterlimit:4;stroke-dasharray:none;stroke-dashoffset:0;stroke-opacity:1;-inkscape-stroke:none;paint-order:stroke markers fill"
         d="m 18.938379,71.784765 c -0.0097,-0.01295 -0.02197,-0.04918 -0.07161,-0.08701 -0.04351,-0.03316 -0.128703,-0.08282 -0.25793,-0.132069 -0.109325,-0.04167 -0.248454,-0.08245 -0.42116,-0.114598 -0.261659,-0.04871 -0.582378,-0.07404 -0.951804,-0.061 -0.311604,0.011 -0.640563,0.04895 -0.957373,0.113858 -0.299423,0.06135 -0.580962,0.14545 -0.812165,0.248067 -0.351835,0.159897 -0.637896,0.350803 -0.871664,0.554944 -0.22115,0.193122 -0.391303,0.394473 -0.522729,0.583619 -0.0228,0.03282 -0.0452,0.06635 -0.06717,0.100621 -0.28659,0.447062 -0.449189,0.936775 -0.550282,1.430345 -0.02553,0.122797 -0.04396,0.258711 -0.05551,0.403107 -0.01169,0.146091 -0.01636,0.301216 -0.01413,0.460972 0.0047,0.339166 0.04031,0.689611 0.102016,1.020932 0.07371,0.395734 0.17887,0.734966 0.297761,1.010137 0.164291,0.380248 0.337525,0.596991 0.430733,0.684179 0.06552,0.06129 0.118208,0.07332 0.138274,0.08428 -0.0086,-0.02495 -0.0092,-0.07073 -0.04547,-0.151348 -0.05023,-0.11177 -0.172174,-0.333564 -0.286919,-0.704962 -0.08304,-0.268763 -0.155699,-0.594601 -0.199786,-0.9732 -0.03693,-0.317147 -0.05086,-0.648656 -0.03777,-0.964958 0.0062,-0.148782 0.01818,-0.290672 0.03574,-0.421677 0.0174,-0.129851 0.03991,-0.246462 0.06651,-0.346675 0.122246,-0.461928 0.277874,-0.881285 0.527172,-1.269013 0.01897,-0.02951 0.0382,-0.05838 0.05769,-0.08665 0.112001,-0.162507 0.25431,-0.337325 0.439096,-0.507946 0.195124,-0.180165 0.437958,-0.356049 0.745379,-0.510487 0.189934,-0.09833 0.436078,-0.18944 0.713122,-0.2647 0.291117,-0.07908 0.597781,-0.135767 0.891283,-0.169216 0.347642,-0.03962 0.650095,-0.04398 0.898665,-0.02884 0.164039,0.01 0.29723,0.02793 0.40427,0.04643 0.126986,0.02195 0.214228,0.04397 0.265888,0.05261 0.06017,0.01007 0.09159,-4.24e-4 0.109876,2.32e-4 z"
         id="path34"
         sodipodi:nodetypes="cssc"
         transform="matrix(1,0,0,-1,1.4031654,152.81498)" />
            <path
         style="font-variation-settings:normal;opacity:1;vector-effect:none;fill:#000000;fill-opacity:1;fill-rule:nonzero;stroke:none;stroke-width:0.4;stroke-linecap:square;stroke-linejoin:round;stroke-miterlimit:4;stroke-dasharray:none;stroke-dashoffset:0;stroke-opacity:1;-inkscape-stroke:none;paint-order:stroke markers fill"
         d="m 18.176581,71.949844 c 0.0028,-0.01649 0.0289,-0.0569 0.01188,-0.111545 -0.01548,-0.04968 -0.06492,-0.12909 -0.159956,-0.215307 -0.07538,-0.06838 -0.177393,-0.13884 -0.310205,-0.200902 -0.201353,-0.09409 -0.460919,-0.162605 -0.767281,-0.180559 -0.258962,-0.01518 -0.54048,0.0069 -0.815874,0.07387 -0.261526,0.06363 -0.512783,0.166861 -0.722473,0.311473 -0.407335,0.281116 -0.71978,0.573016 -0.962955,0.857282 -0.217683,0.254464 -0.377923,0.500627 -0.498612,0.721204 -0.02936,0.05366 -0.05766,0.108253 -0.08488,0.163814 -0.134364,0.27429 -0.233029,0.552847 -0.307201,0.836632 -0.06747,0.258152 -0.10878,0.497435 -0.142519,0.712458 -0.03811,0.239371 -0.05795,0.528785 -0.05513,0.837846 0.003,0.329857 0.03158,0.668334 0.08551,0.990674 0.06442,0.385009 0.159325,0.71446 0.270958,0.984719 0.154098,0.373066 0.322622,0.588937 0.415076,0.675985 0.06506,0.06125 0.117834,0.0729 0.137957,0.08389 -0.0086,-0.02495 -0.0089,-0.07092 -0.04513,-0.150925 -0.05063,-0.111876 -0.172062,-0.327179 -0.285143,-0.689864 -0.08176,-0.262224 -0.15152,-0.577032 -0.194405,-0.946391 -0.03589,-0.309142 -0.04987,-0.631901 -0.04111,-0.945017 0.0082,-0.294263 0.0362,-0.562446 0.07779,-0.776561 0.04138,-0.212456 0.08579,-0.434911 0.153141,-0.674762 0.07355,-0.261925 0.166304,-0.514161 0.289162,-0.761771 0.02489,-0.05017 0.05067,-0.09944 0.07734,-0.147871 0.109482,-0.198839 0.255346,-0.42082 0.453648,-0.651041 0.221374,-0.257005 0.508424,-0.524781 0.88704,-0.786517 0.16133,-0.111653 0.364667,-0.199129 0.58928,-0.2576 0.235496,-0.0613 0.478624,-0.0868 0.704033,-0.08343 0.266138,0.004 0.487828,0.04722 0.661115,0.103371 0.114098,0.03697 0.204145,0.07834 0.276033,0.115725 0.09109,0.04737 0.152987,0.08803 0.19541,0.104325 0.04751,0.01825 0.08932,0.0045 0.107497,0.0068 z"
         id="path35"
         sodipodi:nodetypes="cssc"
         transform="matrix(-0.59863355,-0.4852998,0.42494083,-0.64579528,-1.3842026,136.51729)" />
            <path
         style="font-variation-settings:normal;opacity:1;vector-effect:none;fill:#000000;fill-opacity:1;fill-rule:nonzero;stroke:none;stroke-width:0.4;stroke-linecap:square;stroke-linejoin:round;stroke-miterlimit:4;stroke-dasharray:none;stroke-dashoffset:0;stroke-opacity:1;-inkscape-stroke:none;paint-order:stroke markers fill"
         d="m 16.189313,71.681895 c 0.0058,-0.01221 0.03199,-0.0469 0.03232,-0.07705 4.85e-4,-0.04387 -0.04585,-0.119125 -0.150244,-0.160612 -0.03626,-0.01441 -0.07704,-0.0235 -0.121458,-0.02598 -0.03921,-0.0022 -0.07947,8.58e-4 -0.120351,0.0086 -0.07429,0.01408 -0.147253,0.04298 -0.218513,0.07997 -0.06757,0.03507 -0.133983,0.07761 -0.197726,0.121022 -0.407446,0.280785 -0.720061,0.572417 -0.963384,0.85652 -0.217822,0.254327 -0.378162,0.500418 -0.498853,0.720998 -0.02936,0.05366 -0.05766,0.108253 -0.08487,0.163815 -0.134343,0.274284 -0.232965,0.552865 -0.307066,0.836668 -0.0674,0.258156 -0.108634,0.497451 -0.142289,0.712485 -0.03803,0.239358 -0.05778,0.528753 -0.05489,0.837786 0.0031,0.329833 0.03171,0.668264 0.08567,0.990559 0.06446,0.384978 0.159341,0.714352 0.270882,0.984576 0.15404,0.373181 0.322388,0.589094 0.41438,0.676238 0.06574,0.06227 0.118068,0.07302 0.137957,0.08389 -0.0086,-0.02495 -0.0081,-0.06976 -0.04513,-0.150925 -0.05083,-0.11137 -0.172619,-0.326835 -0.285839,-0.689611 -0.08184,-0.262232 -0.151626,-0.577116 -0.19448,-0.946534 -0.03587,-0.309181 -0.04979,-0.631988 -0.04095,-0.945133 0.0083,-0.294289 0.03636,-0.562496 0.07803,-0.77662 0.04146,-0.212457 0.08595,-0.434889 0.153371,-0.674735 0.07363,-0.26193 0.166427,-0.514136 0.289298,-0.761735 0.02489,-0.05016 0.05068,-0.09944 0.07734,-0.147869 0.109476,-0.198828 0.255241,-0.420885 0.453407,-0.651247 0.221222,-0.257164 0.508102,-0.52521 0.886611,-0.78728 0.06037,-0.04233 0.112059,-0.07751 0.161116,-0.107596 0.05142,-0.03153 0.08947,-0.05095 0.121402,-0.06527 0.01627,-0.0073 0.03124,-0.01337 0.04258,-0.01787 0.01264,-0.005 0.02576,-0.01006 0.03683,-0.01376 0.03382,-0.01128 0.07888,-0.0119 0.116537,-0.02749 0.02475,-0.01024 0.05636,-0.03881 0.0683,-0.04582 z"
         id="path36"
         sodipodi:nodetypes="cssc"
         transform="matrix(-0.71699263,-0.28248821,0.21072839,-0.74378746,18.963118,139.03954)" />
            </g>
         </g>
         <g
         id="head">
            <path
         id="path799-4"
         d="m 86.163739,48.024014 c -1.056681,0.02884 -2.076329,0.347752 -3.059016,0.956729 l -0.186168,0.125354 -0.06986,0.0445 -0.573753,0.415777 c -0.614879,0.514416 -1.108007,1.006138 -1.479597,1.475164 -0.939869,1.187394 -1.532644,2.547501 -1.778354,4.080462 0.0054,0.06657 -4.26e-4,0.118683 -0.01738,0.156204 l -0.0053,0.115248 -0.02642,0.361343 c -0.02723,0.499288 0.003,1.001002 0.09078,1.505129 l 0.04628,0.204254 c 0.366749,1.492413 1.297518,2.465864 2.792352,2.920365 1.75658,0.533782 3.744755,0.263253 5.374244,-0.597335 0.008,-0.0041 0.01576,0.0058 0.0099,0.01259 -0.511996,0.504734 -0.965893,1.061267 -1.361691,1.669489 -1.121427,1.772013 -1.661529,3.710505 -1.620376,5.815376 5.45e-4,0.0056 -0.0074,0.0071 -0.009,0.0018 -0.694158,-1.750831 -1.802934,-3.140634 -3.326211,-4.169468 -0.340423,-0.229672 -0.906,-0.514754 -1.270025,-0.626413 -1.053646,-0.32499 -2.024668,-0.283612 -2.913095,0.12429 -1.177711,0.54044 -2.064957,1.445983 -2.66168,2.716289 -0.418795,0.872087 -0.643878,1.707222 -0.675348,2.505475 -0.03086,0.786755 -0.02946,1.327418 0.0044,1.622149 0.217871,1.899104 1.113062,3.786393 2.53739,5.069105 0.663597,0.598236 1.510618,1.074885 2.388454,1.147508 1.079367,0.09078 2.105039,-0.293288 3.039159,-0.867013 1.739332,-1.069381 3.023981,-2.803161 3.278163,-4.861129 0.002,-0.02194 0.03293,-0.02414 0.03989,-0.0028 0.606406,1.968702 1.701458,3.582181 3.285255,4.840383 0.385819,0.306219 0.837038,0.570312 1.247684,0.828007 l 1.82e-4,1.82e-4 0.05549,0.02535 0.01028,0.01613 c 6.9e-5,4.3e-5 9.1e-5,9e-5 1.82e-4,1.81e-4 0.02581,0.01635 0.05154,0.03261 0.07695,0.04894 0.02545,0.01632 0.02497,0.05366 -9.08e-4,0.06933 l 1.042544,1.619844 0.0078,0.02004 c 0.722327,0.729308 1.617811,1.060963 2.675154,1.161161 0.455333,0.04315 1.742783,-0.102205 2.849776,-0.477675 0.77417,-0.27731 2.134402,-1.142879 2.134402,-1.142879 0.0025,-0.0059 0.0065,-0.01117 0.01152,-0.01525 0.54165,-0.421216 1.012084,-0.898088 1.411513,-1.43066 0.03226,-0.04347 0.07878,-0.07458 0.131736,-0.08812 1.239433,-0.309861 2.415843,-0.796726 3.529403,-1.460626 0.7341,-0.447239 1.32005,-0.872002 1.7576,-1.274457 0.722,-0.664505 1.29335,-1.43009 1.80637,-2.240584 0.60101,-0.949506 0.89336,-2.071003 0.90975,-3.072846 0.0115,-0.730471 -0.20891,-1.349494 -0.66099,-1.857254 -0.17611,-0.197897 -0.38304,-0.353223 -0.60727,-0.503009 -0.028,-0.01894 -0.0378,-0.05549 -0.0227,-0.08528 0.48053,-0.950763 0.69963,-1.957182 0.65726,-3.0193 -0.0484,-0.439978 -0.16544,-0.864918 -0.35123,-1.274634 -0.13254,-0.229975 -0.29215,-0.444503 -0.47855,-0.643612 -0.6872,-0.731682 -2.04528,-0.913212 -2.40476,0.278721 -0.0914,0.380063 -0.13277,0.766157 -0.12429,1.158323 0.023,1.093589 0.22939,2.156412 0.61914,3.18827 0.005,0.01398 -0.003,0.02934 -0.0183,0.03174 -0.49626,0.08654 -0.95502,0.234112 -1.37623,0.442904 -0.0229,0.01136 -0.0498,-0.0053 -0.0498,-0.03085 -0.0191,-1.859163 -0.69907,-3.694649 -1.74485,-5.215204 -0.71715,-1.041542 -1.660621,-1.848563 -2.830465,-2.421079 -0.06657,-0.01029 -0.158195,-0.05184 -0.274997,-0.124467 -0.498682,-0.190031 -1.012535,-0.335453 -1.541476,-0.43652 -2.380235,-0.375827 -5.05829,0.207799 -7.191605,1.387931 -0.0174,0.0098 -0.03472,-0.01289 -0.02074,-0.02713 0.233605,-0.234816 0.416008,-0.452793 0.547336,-0.653717 0.435741,-0.664505 0.777006,-1.37832 1.023926,-2.141471 l 0.04273,-0.145212 C 91.47184,53.364546 91.377394,51.108735 90.05837,49.528266 89.697068,49.146388 89.277161,48.839779 88.798452,48.608593 88.575135,48.500264 88.344175,48.392488 88.105727,48.28537 87.44508,48.093825 86.797732,48.006719 86.163722,48.024024 Z m 9.128999,9.182368 c 1.790169,0.05447 3.59575,1.177259 4.721412,2.502638 1.38772,1.634029 2.13795,3.546835 2.25051,5.738249 10e-4,0.02283 -0.009,0.04488 -0.0273,0.05904 -1.06938,0.832749 -1.69569,1.932657 -1.87906,3.299794 -0.043,0.320754 -0.0473,0.649599 -0.0128,0.986694 -0.002,0.03392 0.049,0.03676 0.0509,0.0028 0.0532,-0.256603 0.11518,-0.540519 0.18599,-0.851589 0.19306,-0.846063 0.56075,-1.596118 1.103,-2.250335 0.64091,-0.774347 1.76393,-1.473484 2.85601,-1.49981 0.029,-5.44e-4 0.0543,0.01976 0.0599,0.04823 0.0163,0.08412 0.12309,0.25326 0.32038,0.507442 0.40579,0.522889 0.78517,0.175105 1.08475,-0.192551 0.0321,-0.03911 0.0886,-0.04767 0.13085,-0.01986 1.1656,0.772532 1.07741,2.250435 0.6335,3.418765 -0.50897,1.341113 -1.29657,2.464278 -2.36292,3.369652 -1.4676,1.246097 -3.18157,2.100374 -5.141802,2.562744 -0.04495,0.01053 -0.08438,0.03738 -0.110637,0.07535 -1.260926,1.830112 -3.368871,2.914897 -5.565732,3.057421 -1.046384,0.06778 -1.938484,-0.213247 -2.676218,-0.843255 -1.039424,-0.887822 -1.487881,-2.308647 -1.845552,-3.648551 -0.0038,-0.02118 -0.03518,-0.01779 -0.0344,0.0037 -0.02602,0.381879 0.0056,0.77339 0.09521,1.174635 0.0078,0.03029 -0.0283,0.0524 -0.05177,0.03174 -1.204642,-1.02036 -2.013337,-2.675167 -2.298385,-4.164858 -0.107725,-0.561621 -0.08334,-1.06791 0.0734,-1.51878 0.611853,-1.76112 2.831451,-1.438953 4.196772,-0.986872 0.03916,0.01055 0.06456,-0.04025 0.03262,-0.06525 -2.047074,-1.406172 -4.677718,-4.515351 -3.440396,-7.15703 0.567069,-1.210997 1.505122,-1.999898 2.81416,-2.366646 2.010763,-0.56374 4.019647,0.650858 5.267863,2.126931 0.02264,0.02735 0.06627,0.0026 0.05443,-0.03085 -0.15372,-0.451475 -0.294745,-0.940207 -0.423046,-1.466122 -0.157048,-0.644533 -0.317728,-1.287223 -0.158864,-1.831899 0.01245,-0.0434 0.05243,-0.07287 0.09716,-0.07163 z"
         sodipodi:nodetypes="sccccccccccccccccccccccccccccccccccccccssccccccscccccccccccscccccccccccccsccccccccccccccccccccccccccccccccccc"
         style="stroke-width:0.0907794" />
            <path
         fill="#040706"
         d="m 99.520343,64.379679 a 0.02087925,0.02087925 0 0 1 0,0.03903 q -0.699001,0.268707 -1.272727,0.723512 a 0.12345993,0.12527552 58.8 0 0 -0.03722,0.147062 c 0.285955,0.651796 0.831539,1.54688 1.459732,1.845545 0.659062,0.313188 0.960442,-0.274154 1.013102,-0.81066 0.128,-1.281805 -0.42394,-2.762416 -1.115683,-3.819088 -0.301387,-0.460251 -0.889637,-1.159252 -1.438853,-1.115678 -1.038515,0.08079 -0.451173,2.429256 -0.266891,2.995719 a 0.03631174,0.03721954 73 0 0 0.04539,0.0236 c 0.566463,-0.157956 1.069381,-0.226948 1.613149,-0.02905 z"
         id="leftEye"
         style="stroke-width:0.0907794" />
            <path
         fill="#040706"
         d="m 95.075786,66.125366 q -0.0054,0.0082 -0.227857,0.195176 -0.511995,0.432109 -0.860588,0.985864 a 0.07534687,0.07534687 0 0 0 0.0036,0.08624 c 0.507457,0.684476 1.321748,1.440668 2.148748,1.665801 1.281804,0.347685 1.279989,-1.013097 1.030345,-1.840097 q -0.490208,-1.62132 -1.638567,-2.881337 c -0.474776,-0.520166 -1.293606,-1.180132 -2.015302,-1.142912 -1.136557,0.05901 -0.898716,1.566851 -0.647257,2.24225 q 0.320451,0.861496 0.600052,1.243677 a 0.04902085,0.04811306 54.6 0 0 0.06718,0.0118 c 0.459343,-0.313189 0.964984,-0.56374 1.50966,-0.618207 a 0.03268057,0.03268057 0 0 1 0.02996,0.05174 z"
         id="rightEye"
         style="stroke-width:0.0907794" />
            <path
         fill="#040706"
         d="m 90.229075,70.081531 q -0.530151,2.647126 0.645442,5.078197 c 0.511995,1.059395 1.433406,1.918168 2.64531,2.04072 2.037997,0.207885 3.796393,-0.957722 4.810399,-2.657112 a 0.06626893,0.06717673 31.9 0 0 -0.01997,-0.08896 l -7.015429,-4.729604 a 0.01634028,0.01634028 0 0 1 0.0054,-0.02905 l 0.747114,-0.16431 a 0.13344566,0.13344566 0 0 0 0.04811,-0.239658 c -0.155185,-0.108031 -0.415721,-0.15796 -0.7743,-0.183378 q -1.413434,-0.103489 -2.57541,0.787057 c -0.27597,0.211516 -0.511996,0.637271 -0.177928,0.901439 0.157048,0.124368 0.303203,0.08443 0.468422,-0.02451 q 0.497471,-0.328621 1.162883,-0.712617 a 0.02087925,0.01997146 80.3 0 1 0.02996,0.02179 z m 2.791466,3.409672 q 0.57191,0.13163 1.138373,0.431202 c 0.74893,0.397614 1.274542,1.333549 0.330437,1.928154 -0.443911,0.280508 -1.167423,0.521073 -1.667617,0.293217 -1.484243,-0.677214 -2.234988,-2.520943 -2.327583,-4.066915 a 0.03177278,0.03177278 0 0 1 0.03722,-0.03359 q 1.075735,0.19336 1.730254,1.082997 c 0.455713,0.619116 0.694462,1.281805 0.966801,1.984437 a 0.05265203,0.05174424 37.2 0 0 0.100765,-0.01362 c 0.04539,-0.488393 -0.148879,-1.092983 -0.350409,-1.555958 a 0.03631174,0.03631174 0 0 1 0.04176,-0.04993 z"
         id="path910-6"
         style="stroke-width:0.0907794" />
            <path
         fill="#cc4755"
         d="m 93.020541,73.491203 a 0.03631174,0.03631174 0 0 0 -0.04176,0.04993 c 0.20153,0.462975 0.395798,1.067565 0.350409,1.555958 a 0.05265203,0.05174424 37.2 0 1 -0.100765,0.01362 c -0.272338,-0.702636 -0.511087,-1.365325 -0.9668,-1.984441 q -0.654519,-0.889637 -1.730254,-1.082997 a 0.03177278,0.03177278 0 0 0 -0.03722,0.03359 c 0.0926,1.545972 0.84334,3.389701 2.327583,4.066915 0.500194,0.227856 1.223706,-0.01271 1.667617,-0.293217 0.944105,-0.594605 0.418493,-1.53054 -0.330437,-1.928154 q -0.566463,-0.299572 -1.138373,-0.431202 z"
         id="path922-3"
         style="stroke-width:0.0907794" />
            <path
         style="fill:#fffceb;fill-opacity:1;stroke-width:0.03714;stroke-linejoin:round;paint-order:fill markers stroke"
         d="m 95.317139,57.213286 c -0.220919,0.05242 -0.151316,0.377135 -0.179164,0.548333 0.03783,0.855789 0.308308,1.683996 0.545547,2.501381 0.0051,0.06976 0.127548,0.279034 0.04415,0.289997 -0.622612,-0.544052 -1.209801,-1.155342 -1.950835,-1.550093 -1.080298,-0.631447 -2.434677,-0.879083 -3.626546,-0.420895 -1.604188,0.557371 -2.914408,2.151846 -2.808171,3.89908 0.116973,1.675864 1.157909,3.119834 2.288627,4.290714 0.434349,0.47394 0.972679,0.833082 1.447988,1.258359 -0.05629,0.05943 -0.310378,-0.06439 -0.425827,-0.07326 -0.99826,-0.256034 -2.178936,-0.449801 -3.089689,0.166154 -0.770411,0.522422 -0.950737,1.551356 -0.778261,2.411459 0.305469,1.55059 1.036937,3.068879 2.232296,4.126994 0.161091,0.0994 0.05636,-0.170472 0.05825,-0.237701 -0.02685,-0.289494 -0.05232,-0.6031 -0.03282,-0.882861 0.39216,1.125559 0.67569,2.352128 1.517938,3.248372 0.686556,0.815981 1.752539,1.302999 2.823036,1.216534 2.272445,-0.02989 4.483275,-1.227204 5.792932,-3.07488 1.61683,-0.441718 3.2017,-1.076205 4.55556,-2.081442 1.55007,-1.137223 2.82054,-2.764479 3.24884,-4.664387 0.20933,-0.911486 0.0366,-2.024129 -0.78546,-2.584193 -0.13042,-0.11664 -0.25927,0.0098 -0.31639,0.129647 -0.22104,0.255814 -0.66203,0.371714 -0.90196,0.07754 -0.23633,-0.166524 -0.26973,-0.632097 -0.61848,-0.602073 -1.20078,0.16278 -2.30237,0.89968 -2.97246,1.90247 -0.55001,0.780489 -0.75499,1.723505 -1.00368,2.626897 -0.0587,0.162893 -0.0511,-0.189673 -0.0556,-0.244034 -0.0349,-1.495589 0.65342,-2.978721 1.81674,-3.91975 0.22057,-0.155681 0.0531,-0.471298 0.0676,-0.705183 -0.29764,-2.885543 -1.97623,-5.699742 -4.601946,-7.029414 -0.713369,-0.351804 -1.495985,-0.58425 -2.292272,-0.623761 z m 2.843869,4.186586 c 0.605774,0.01183 0.989906,0.582253 1.339551,1.008285 0.812411,1.205046 1.340551,2.696358 1.138511,4.157318 -0.0658,0.372573 -0.43524,0.801184 -0.848319,0.610806 -0.76554,-0.317912 -1.202986,-1.100446 -1.542417,-1.811017 -0.12619,-0.246364 0.240567,-0.365096 0.378959,-0.493923 0.271123,-0.177746 0.565732,-0.310522 0.858488,-0.450835 -0.228623,-0.178304 -0.624241,-0.151772 -0.93046,-0.133485 -0.22985,-0.02011 -0.478315,0.167696 -0.690071,0.07034 -0.206058,-0.543797 -0.28071,-1.138102 -0.323012,-1.715727 0.006,-0.398606 -0.02943,-0.933178 0.346139,-1.180923 0.08397,-0.04288 0.179021,-0.0596 0.272631,-0.06084 z m -4.560651,1.812457 c 0.607114,-0.0072 1.120577,0.405714 1.566888,0.773271 0.97489,0.900992 1.6815,2.090683 2.043152,3.366102 0.04996,0.473636 0.107626,0.985876 -0.06247,1.435226 -0.29545,0.439493 -0.928065,0.351123 -1.341662,0.148838 -0.725591,-0.349308 -1.360222,-0.901768 -1.812648,-1.566023 0.07092,-0.319156 0.383409,-0.544958 0.584511,-0.791025 0.106666,-0.156082 0.371531,-0.278881 0.377903,-0.477129 -0.340977,-0.0066 -0.670641,0.202226 -0.982087,0.333473 -0.164348,0.0656 -0.325901,0.236372 -0.500832,0.228008 -0.380952,-0.525789 -0.60017,-1.171003 -0.752736,-1.797007 -0.08096,-0.517898 -0.129523,-1.22352 0.367924,-1.552685 0.156848,-0.08685 0.338251,-0.09974 0.512059,-0.101049 z m -2.526807,5.889358 c 0.355668,0.02858 0.793596,-0.01288 1.072677,0.241923 0.03762,0.21503 -0.292905,0.200465 -0.430492,0.261117 -0.0887,0.04725 -0.350873,0.03149 -0.336158,0.162561 2.302211,1.589015 4.663818,3.098583 6.927199,4.739526 -0.231883,0.547508 -0.66954,0.991029 -1.088741,1.402502 -1.103606,1.045813 -2.7319,1.545605 -4.21716,1.197717 -1.0988,-0.353277 -1.909402,-1.304548 -2.310314,-2.363478 -0.624542,-1.413557 -0.747515,-3.008105 -0.500448,-4.522745 0.01372,-0.212399 -0.248573,0.03572 -0.330882,0.05671 -0.389721,0.185756 -0.735439,0.544656 -1.182266,0.570885 -0.367155,-0.108834 -0.305759,-0.619084 -0.06382,-0.831425 0.451068,-0.424849 1.04657,-0.682894 1.641522,-0.836319 0.268818,-0.05485 0.543424,-0.07799 0.818879,-0.07898 z"
         id="path1228" />
         </g>
         <g
         id="g70"
         transform="matrix(0.04206965,-0.0026082,0.0026082,0.04206965,15.925747,62.750474)" />
      </g>
   </g>
</svg>
